<svg width="25" height="26" viewBox="0 0 25 26" fill="none" xmlns="http://www.w3.org/2000/svg">
<g clip-path="url(#clip0_269_416)">
<path d="M17.5779 0.695312H7.42163C7.05917 0.695752 6.71167 0.839935 6.45537 1.09624C6.19907 1.35254 6.05488 1.70003 6.05444 2.0625V9.875C6.05488 10.2375 6.19907 10.585 6.45537 10.8413C6.71167 11.0976 7.05917 11.2417 7.42163 11.2422H9.91339L12.0855 13.4143C12.1399 13.4687 12.2045 13.5119 12.2755 13.5413C12.3466 13.5708 12.4228 13.5859 12.4998 13.5859C12.5767 13.5859 12.6529 13.5708 12.724 13.5413C12.7951 13.5119 12.8596 13.4687 12.914 13.4143L15.0861 11.2422H17.5779C17.9403 11.2417 18.2878 11.0976 18.5441 10.8413C18.8004 10.585 18.9446 10.2375 18.9451 9.875V2.0625C18.9446 1.70003 18.8004 1.35254 18.5441 1.09624C18.2878 0.839934 17.9403 0.695751 17.5779 0.695312ZM8.88647 6.94531C8.69333 6.94531 8.50452 6.88804 8.34393 6.78073C8.18333 6.67343 8.05816 6.52091 7.98425 6.34246C7.91034 6.16402 7.891 5.96767 7.92868 5.77823C7.96636 5.5888 8.05937 5.41479 8.19594 5.27822C8.33252 5.14164 8.50652 5.04863 8.69596 5.01095C8.88539 4.97327 9.08175 4.99261 9.26019 5.06652C9.43863 5.14044 9.59115 5.26561 9.69846 5.4262C9.80576 5.5868 9.86304 5.7756 9.86304 5.96875C9.86304 6.09699 9.83778 6.22398 9.7887 6.34246C9.73962 6.46095 9.66769 6.5686 9.57701 6.65928C9.48633 6.74997 9.37867 6.8219 9.26019 6.87098C9.14171 6.92005 9.01472 6.94531 8.88647 6.94531ZM12.4998 6.94531C12.3066 6.94531 12.1178 6.88804 11.9572 6.78073C11.7966 6.67343 11.6714 6.52091 11.5975 6.34246C11.5236 6.16402 11.5043 5.96767 11.542 5.77823C11.5796 5.5888 11.6726 5.41479 11.8092 5.27822C11.9458 5.14164 12.1198 5.04863 12.3092 5.01095C12.4987 4.97327 12.695 4.99261 12.8735 5.06652C13.0519 5.14044 13.2044 5.26561 13.3117 5.4262C13.419 5.5868 13.4763 5.7756 13.4763 5.96875C13.4763 6.09699 13.4511 6.22398 13.402 6.34246C13.3529 6.46095 13.281 6.5686 13.1903 6.65928C13.0996 6.74997 12.992 6.8219 12.8735 6.87098C12.755 6.92005 12.628 6.94531 12.4998 6.94531ZM16.113 6.94531C15.9199 6.94531 15.7311 6.88804 15.5705 6.78073C15.4099 6.67343 15.2847 6.52091 15.2108 6.34246C15.1369 6.16402 15.1176 5.96767 15.1552 5.77823C15.1929 5.5888 15.2859 5.41479 15.4225 5.27822C15.5591 5.14164 15.7331 5.04863 15.9225 5.01095C16.112 4.97327 16.3083 4.99261 16.4868 5.06652C16.6652 5.14044 16.8177 5.26561 16.925 5.4262C17.0323 5.5868 17.0896 5.7756 17.0896 5.96875C17.0896 6.22775 16.9867 6.47614 16.8036 6.65928C16.6204 6.84242 16.372 6.94531 16.113 6.94531Z" fill="white"/>
<path d="M24.0764 14.0753C23.61 13.61 22.9782 13.3486 22.3194 13.3486C21.6606 13.3486 21.0287 13.61 20.5623 14.0753L17.7691 16.8686C17.7224 16.2943 17.4614 15.7585 17.0381 15.3675C16.6147 14.9766 16.0598 14.7591 15.4836 14.7581H7.39007C6.76559 14.7564 6.14698 14.8786 5.57004 15.1176C4.99311 15.3566 4.46932 15.7077 4.02901 16.1505L0.366969 19.8126C0.312549 19.867 0.269379 19.9316 0.239926 20.0027C0.210472 20.0738 0.195312 20.15 0.195312 20.2269C0.195312 20.3038 0.210472 20.38 0.239926 20.4511C0.269379 20.5222 0.312549 20.5868 0.366969 20.6412L4.85907 25.1334C4.91347 25.1878 4.97805 25.2309 5.04913 25.2604C5.12021 25.2899 5.1964 25.305 5.27334 25.305H6.05459C6.13153 25.305 6.20772 25.2899 6.2788 25.2604C6.34988 25.2309 6.41446 25.1878 6.46886 25.1334L7.37138 24.2308H15.3134C15.9864 24.2327 16.653 24.101 17.2747 23.8435C17.8964 23.586 18.4609 23.2077 18.9354 22.7305L24.0764 17.5894C24.3073 17.3588 24.4904 17.0849 24.6154 16.7834C24.7404 16.4819 24.8047 16.1587 24.8047 15.8324C24.8047 15.506 24.7404 15.1829 24.6154 14.8814C24.4904 14.5799 24.3073 14.306 24.0764 14.0753ZM23.2479 16.7609L18.1069 21.9019C17.7409 22.2699 17.3055 22.5616 16.826 22.7602C16.3465 22.9588 15.8324 23.0604 15.3134 23.0589H7.12877C7.05183 23.0589 6.97564 23.0741 6.90456 23.1035C6.83348 23.133 6.7689 23.1762 6.71451 23.2306L5.81196 24.1331H5.51595L1.60977 20.2269L4.85754 16.9791C5.18934 16.6454 5.58402 16.3809 6.01873 16.2009C6.45344 16.0208 6.91954 15.9287 7.39007 15.93H15.4836C15.7814 15.93 16.0671 16.0483 16.2777 16.259C16.4883 16.4696 16.6066 16.7552 16.6066 17.0531C16.6066 17.3509 16.4883 17.6366 16.2777 17.8472C16.0671 18.0578 15.7814 18.1761 15.4836 18.1761H11.6262C11.4708 18.1761 11.3218 18.2378 11.2119 18.3477C11.102 18.4576 11.0403 18.6067 11.0403 18.7621C11.0403 18.9175 11.102 19.0665 11.2119 19.1764C11.3218 19.2863 11.4708 19.348 11.6262 19.348H16.7042C16.8596 19.3479 17.0086 19.2862 17.1185 19.1763L21.3909 14.9039C21.5128 14.7819 21.6576 14.6852 21.8169 14.6192C21.9762 14.5532 22.1469 14.5193 22.3194 14.5193C22.4918 14.5193 22.6626 14.5533 22.8219 14.6192C22.9812 14.6852 23.1259 14.782 23.2479 14.9039C23.3698 15.0258 23.4665 15.1706 23.5325 15.3299C23.5985 15.4892 23.6324 15.6599 23.6324 15.8324C23.6324 16.0048 23.5985 16.1756 23.5325 16.3349C23.4665 16.4942 23.3698 16.6389 23.2478 16.7609L23.2479 16.7609Z" fill="white"/>
</g>
<defs>
<clipPath id="clip0_269_416">
<rect width="25" height="25" fill="white" transform="translate(0 0.5)"/>
</clipPath>
</defs>
</svg>
