<svg width="25" height="26" viewBox="0 0 25 26" fill="none" xmlns="http://www.w3.org/2000/svg">
<path d="M22.6535 15.8458C22.3845 15.8461 22.1179 15.8968 21.8675 15.9951L17.6447 17.4527C17.6315 16.7688 17.3508 16.1173 16.8628 15.638C16.3748 15.1587 15.7185 14.8897 15.0345 14.8887H12.3084C12.0105 14.8886 11.7185 14.8057 11.4649 14.6493L10.5003 14.0487C10.1063 13.8009 9.65585 13.6572 9.19117 13.631C8.72649 13.6048 8.26276 13.6969 7.84339 13.8988L6.3066 14.6309V14.498C6.30579 14.0317 6.12003 13.5847 5.79006 13.2552C5.4601 12.9256 5.01289 12.7404 4.54655 12.7402H1.95536C1.48902 12.7404 1.04181 12.9256 0.711845 13.2552C0.381882 13.5847 0.196118 14.0317 0.195312 14.498V22.4937C0.196118 22.96 0.381882 23.407 0.711845 23.7365C1.04181 24.0661 1.48902 24.2513 1.95536 24.2515H4.54655C4.98123 24.2504 5.40004 24.088 5.72189 23.7958C6.04374 23.5036 6.24573 23.1024 6.28876 22.6699H7.79488C7.99676 22.669 8.19695 22.7067 8.38462 22.7811L11.8004 24.1317C12.4835 24.4032 13.2464 24.3926 13.9216 24.1023L23.5057 19.9689C23.9601 19.7732 24.3331 19.4266 24.5616 18.9877C24.7902 18.5489 24.8603 18.0446 24.7602 17.56C24.66 17.0754 24.3957 16.6403 24.0119 16.328C23.6281 16.0156 23.1483 15.8453 22.6535 15.8458ZM4.54655 23.0796H1.95536C1.79992 23.0795 1.65085 23.0178 1.54086 22.9079C1.43087 22.7981 1.36895 22.6491 1.36868 22.4937V14.498C1.36895 14.3426 1.43087 14.1936 1.54086 14.0838C1.65085 13.9739 1.79992 13.9122 1.95536 13.9121H4.54655C4.70199 13.9122 4.85106 13.9739 4.96105 14.0838C5.07104 14.1936 5.13296 14.3426 5.13323 14.498V22.4937C5.13296 22.6491 5.07104 22.7981 4.96105 22.9079C4.85106 23.0178 4.70199 23.0795 4.54655 23.0796ZM23.0389 18.8937L13.4557 23.0269C13.2632 23.1097 13.0564 23.1537 12.8469 23.1565C12.6374 23.1593 12.4295 23.1208 12.2349 23.0432L8.81852 21.6924C8.49284 21.5628 8.14537 21.4969 7.79488 21.498H6.30659V15.9295L8.34852 14.9566C8.5899 14.8403 8.85683 14.7871 9.12434 14.8021C9.39185 14.8171 9.65118 14.8997 9.87807 15.0422L10.8463 15.6451C11.2857 15.9166 11.792 16.0604 12.3084 16.0606H15.0344C15.4163 16.0612 15.7823 16.2134 16.0522 16.4836C16.322 16.7538 16.4737 17.1201 16.4738 17.5019C16.47 17.6366 16.4148 17.7646 16.3195 17.8598C16.2242 17.955 16.0961 18.01 15.9615 18.0137H9.89125C9.73585 18.0137 9.58681 18.0754 9.47693 18.1853C9.36704 18.2952 9.30531 18.4442 9.30531 18.5996C9.30531 18.755 9.36704 18.9041 9.47693 19.0139C9.58681 19.1238 9.73585 19.1856 9.89125 19.1856H15.9615C16.198 19.185 16.4318 19.1342 16.6473 19.0366L22.2771 17.0928C22.3967 17.0442 22.5244 17.0187 22.6535 17.0176C22.8787 17.0176 23.0969 17.0953 23.2715 17.2375C23.446 17.3798 23.566 17.578 23.6113 17.7985C23.6566 18.0191 23.6244 18.2485 23.5201 18.448C23.4158 18.6476 23.2459 18.805 23.0389 18.8937V18.8937Z" fill="#979797"/>
<path d="M18.7172 2.83322C17.9736 2.08962 16.9651 1.67188 15.9135 1.67188C14.8619 1.67188 13.8533 2.08962 13.1097 2.83322L12.5156 3.42736L11.9215 2.83322C11.1779 2.08962 10.1693 1.67187 9.11769 1.67188C8.06607 1.67189 7.05753 2.08965 6.31393 2.83326C5.57033 3.57688 5.15258 4.58543 5.15259 5.63705C5.1526 6.68867 5.57036 7.69721 6.31397 8.44081L9.71184 11.8387C10.4554 12.5823 11.464 13 12.5156 13C13.5672 13 14.5757 12.5823 15.3194 11.8387L18.7172 8.44082C19.4608 7.6972 19.8786 6.68864 19.8786 5.63702C19.8786 4.58539 19.4608 3.57684 18.7172 2.83322ZM17.7503 7.47423C17.6403 7.58375 17.4913 7.64516 17.3361 7.64497C17.1809 7.64479 17.0321 7.58303 16.9224 7.47324C16.8126 7.36346 16.7509 7.21462 16.7508 7.0594C16.7507 6.90417 16.8122 6.75525 16.9217 6.6453C17.0543 6.51293 17.1594 6.35573 17.2311 6.1827C17.3028 6.00967 17.3398 5.82419 17.3398 5.63688C17.3398 5.44957 17.3028 5.2641 17.2311 5.09107C17.1594 4.91804 17.0543 4.76084 16.9217 4.62847C16.6501 4.3692 16.289 4.22455 15.9135 4.22459C15.538 4.22462 15.1769 4.36934 14.9053 4.62866C14.8509 4.68309 14.7863 4.72627 14.7152 4.75573C14.6441 4.7852 14.5679 4.80037 14.491 4.80039C14.414 4.80041 14.3378 4.78527 14.2667 4.75584C14.1956 4.7264 14.131 4.68325 14.0765 4.62885C14.0221 4.57445 13.9789 4.50986 13.9495 4.43876C13.92 4.36767 13.9048 4.29147 13.9048 4.21452C13.9048 4.13756 13.9199 4.06136 13.9494 3.99025C13.9788 3.91915 14.022 3.85454 14.0764 3.80011C14.3175 3.5585 14.6039 3.36678 14.9192 3.23593C15.2345 3.10507 15.5725 3.03764 15.9139 3.03748C16.2553 3.03733 16.5933 3.10446 16.9088 3.23503C17.2242 3.3656 17.5108 3.55705 17.7521 3.79845C17.9935 4.03984 18.185 4.32644 18.3155 4.64187C18.4461 4.95729 18.5132 5.29535 18.513 5.63672C18.5128 5.9781 18.4454 6.31609 18.3145 6.63138C18.1836 6.94667 17.9919 7.23308 17.7503 7.47423Z" fill="#979797"/>
</svg>
