<svg width="60" height="50" viewBox="0 0 60 50" fill="none" xmlns="http://www.w3.org/2000/svg">
<path opacity="0.2" d="M47.9167 0H58.2738C55.9722 3.6036 53.9584 7.5075 52.2322 11.7117C50.506 15.7658 49.4271 19.6697 48.9956 23.4234C49.1394 23.4234 49.2833 23.4234 49.4271 23.4234C49.571 23.4234 49.7148 23.4234 49.8587 23.4234C53.1672 24.3243 55.6845 25.976 57.4107 28.3784C59.1369 30.6306 60 33.2583 60 36.2613C60 38.6637 59.4246 40.9159 58.2738 43.018C57.2669 44.97 55.7565 46.6216 53.7426 47.973C51.8726 49.3243 49.7148 50 47.2694 50C43.5293 50 40.3647 48.7237 37.7754 46.1712C35.1861 43.6186 33.8915 40.1652 33.8915 35.8108C33.8915 30.1051 35.33 23.6486 38.2069 16.4414C41.0839 9.23423 44.3205 3.75375 47.9167 0ZM14.0252 0H24.3823C22.0808 3.6036 20.0669 7.5075 18.3407 11.7117C16.6145 15.7658 15.5357 19.6697 15.1041 23.4234C15.248 23.4234 15.3918 23.4234 15.5357 23.4234C15.6795 23.4234 15.8234 23.4234 15.9672 23.4234C19.2757 24.3243 21.7931 25.976 23.5193 28.3784C25.2454 30.6306 26.1085 33.2583 26.1085 36.2613C26.1085 38.6637 25.5331 40.9159 24.3823 43.018C23.3754 44.97 21.865 46.6216 19.8511 47.973C17.9811 49.3243 15.8234 50 13.3779 50C9.63786 50 6.47319 48.7237 3.88391 46.1712C1.29464 43.6186 0 40.1652 0 35.8108C0 30.1051 1.43849 23.6486 4.31546 16.4414C7.19243 9.23423 10.429 3.75375 14.0252 0Z" fill="#979797"/>
</svg>
