<svg width="20" height="20" viewBox="0 0 20 20" fill="none" xmlns="http://www.w3.org/2000/svg">
<path d="M14.1667 2.5H5.83341C3.33341 2.5 1.66675 3.75 1.66675 6.66667V12.5C1.66675 15.4167 3.33341 16.6667 5.83341 16.6667H14.1667C16.6667 16.6667 18.3334 15.4167 18.3334 12.5V6.66667C18.3334 3.75 16.6667 2.5 14.1667 2.5ZM14.5584 7.575L11.9501 9.65833C11.4001 10.1 10.7001 10.3167 10.0001 10.3167C9.30008 10.3167 8.59175 10.1 8.05008 9.65833L5.44175 7.575C5.17508 7.35833 5.13341 6.95833 5.34175 6.69167C5.55841 6.425 5.95008 6.375 6.21675 6.59167L8.82508 8.675C9.45841 9.18333 10.5334 9.18333 11.1667 8.675L13.7751 6.59167C14.0417 6.375 14.4417 6.41667 14.6501 6.69167C14.8667 6.95833 14.8251 7.35833 14.5584 7.575Z" fill="#143A5A"/>
</svg>
