<svg width="25" height="26" viewBox="0 0 25 26" fill="none" xmlns="http://www.w3.org/2000/svg">
<g clip-path="url(#clip0_269_434)">
<path d="M24.4266 16.1959L18.5138 10.5837C18.4076 10.4826 18.2667 10.426 18.12 10.4258H6.87718C6.73051 10.426 6.58953 10.4826 6.48332 10.5837C6.44309 10.6219 0.526097 16.2407 0.564624 16.2029C0.503954 16.264 0.457203 16.3374 0.42758 16.4182C0.397956 16.499 0.386161 16.5853 0.393002 16.6711C0.399843 16.7569 0.425159 16.8402 0.467214 16.9152C0.509268 16.9903 0.567067 17.0554 0.636644 17.1061L12.1708 25.2054C12.2673 25.2718 12.3815 25.3072 12.4986 25.3072C12.6156 25.3072 12.7299 25.2718 12.8264 25.2054L24.3605 17.1061C24.4316 17.0555 24.4906 16.99 24.5333 16.914C24.5761 16.838 24.6015 16.7535 24.6079 16.6665C24.6142 16.5796 24.6012 16.4923 24.5699 16.411C24.5385 16.3296 24.4896 16.2562 24.4266 16.1959ZM6.4072 12.2597L8.06242 16.038H2.42668L6.4072 12.2597ZM9.32486 16.038L7.3796 11.5977H17.6176L15.6723 16.038H9.32486ZM15.1589 17.2098L12.4986 23.2825L9.83823 17.2098H15.1589ZM8.57582 17.2098L11.1363 23.0545L2.81298 17.2098H8.57582ZM16.4214 17.2098H22.1842L13.8609 23.0545L16.4214 17.2098ZM16.9348 16.038L18.59 12.2597L22.5705 16.038H16.9348Z" fill="#979797"/>
<path d="M16.5024 9.18842H8.4949C8.20167 9.18842 7.9191 9.07849 7.70296 8.88033C7.48683 8.68217 7.35283 8.41019 7.32743 8.11806L6.84351 2.55306C6.82929 2.38946 6.86697 2.22555 6.95121 2.08459C7.03545 1.94363 7.16197 1.8328 7.31278 1.76785C7.4636 1.70289 7.63105 1.68711 7.79135 1.72274C7.95165 1.75837 8.09664 1.84361 8.20574 1.96634L9.14028 3.0177C9.21644 3.10338 9.31053 3.17126 9.41588 3.2165C9.52122 3.26175 9.63523 3.28325 9.74981 3.27949C9.86439 3.27573 9.97675 3.2468 10.0789 3.19475C10.181 3.1427 10.2705 3.0688 10.3409 2.9783L11.8819 0.996922C11.955 0.903012 12.0485 0.827024 12.1554 0.774754C12.2623 0.722484 12.3797 0.695312 12.4986 0.695312C12.6176 0.695312 12.735 0.722484 12.8419 0.774754C12.9487 0.827024 13.0423 0.903012 13.1153 0.996922L14.6564 2.9783C14.7268 3.0688 14.8162 3.1427 14.9184 3.19475C15.0205 3.2468 15.1329 3.27573 15.2474 3.27949C15.362 3.28325 15.476 3.26175 15.5814 3.2165C15.6867 3.17126 15.7808 3.10338 15.857 3.0177L16.7915 1.96634C16.9006 1.84361 17.0456 1.75837 17.2059 1.72274C17.3662 1.68711 17.5337 1.70289 17.6845 1.76785C17.8353 1.83281 17.9618 1.94364 18.046 2.08459C18.1303 2.22555 18.168 2.38947 18.1537 2.55306L17.6698 8.11806C17.6444 8.41019 17.5104 8.68217 17.2943 8.88033C17.0782 9.07849 16.7956 9.18842 16.5024 9.18842Z" fill="#979797"/>
</g>
<defs>
<clipPath id="clip0_269_434">
<rect width="25" height="25" fill="white" transform="translate(0 0.5)"/>
</clipPath>
</defs>
</svg>
