<svg width="60" height="60" viewBox="0 0 60 60" fill="none" xmlns="http://www.w3.org/2000/svg">
<path d="M28.3173 2.39994C27.736 2.39525 27.2345 2.81244 27.1314 3.38432L26.4751 6.97494C25.9126 7.15775 25.3689 7.37807 24.8345 7.64057L21.886 5.51244C21.4126 5.17025 20.7564 5.21713 20.3439 5.63432L17.7798 8.15619C17.3673 8.56869 17.3064 9.21557 17.6392 9.69369L19.711 12.6937C19.4392 13.2234 19.2095 13.7671 19.0267 14.3249L15.4314 14.9062C14.8548 14.9953 14.4282 15.4921 14.4235 16.0828L14.4001 19.6828C14.3954 20.264 14.8126 20.7656 15.3845 20.8687L18.9892 21.5249C19.1673 22.0828 19.3923 22.6218 19.6548 23.1515L17.5126 26.114C17.1704 26.5874 17.2173 27.2437 17.6298 27.6609L20.161 30.2203C20.5689 30.6328 21.2157 30.6937 21.6939 30.3609L24.7314 28.2703C25.2564 28.5374 25.7954 28.7578 26.3485 28.9406L26.9673 32.5781C27.0657 33.1546 27.5579 33.5765 28.1439 33.5812L31.7392 33.5999C32.3298 33.6046 32.8314 33.1781 32.9298 32.6015L33.5439 28.9687C34.0923 28.7906 34.6267 28.5749 35.147 28.3124L38.161 30.4546C38.6392 30.7921 39.286 30.7359 39.6985 30.3281L42.2626 27.8015C42.6798 27.389 42.736 26.7328 42.3939 26.2499L40.2564 23.2499C40.5235 22.7296 40.7485 22.1999 40.9314 21.6562L44.5829 21.0374C45.1548 20.939 45.5767 20.4421 45.5814 19.8562L45.6001 16.2609C45.6048 15.6749 45.1829 15.1734 44.6017 15.0749L40.9829 14.4609C40.8048 13.9078 40.5845 13.3687 40.3267 12.839L42.4548 9.83432C42.797 9.36088 42.7454 8.714 42.3329 8.29682L39.8017 5.73744C39.3892 5.32494 38.7329 5.264 38.2548 5.60619L35.2829 7.71557C34.7579 7.44838 34.2235 7.22338 33.6751 7.04057L33.0939 3.43119C33.0001 2.84994 32.5032 2.42338 31.9126 2.41869L28.3173 2.39994ZM29.311 4.80463L30.886 4.814L31.4064 8.05775C31.4814 8.53119 31.8329 8.91088 32.2923 9.02807C33.1735 9.25307 34.022 9.614 34.8189 10.0968C35.2267 10.3499 35.747 10.3312 36.136 10.0546L38.8126 8.15619L39.9189 9.27182L37.9923 11.9718C37.7204 12.3609 37.697 12.8718 37.9407 13.2796C38.4142 14.0812 38.761 14.9343 38.9673 15.8109C39.0798 16.2796 39.4595 16.6359 39.9376 16.7203L43.1954 17.2687L43.186 18.839L39.8954 19.3921C39.4267 19.4718 39.047 19.8234 38.9298 20.2828C38.7095 21.1546 38.3579 21.9984 37.8751 22.7859C37.6267 23.1984 37.6454 23.7187 37.9267 24.1078L39.8439 26.8124L38.7329 27.914L36.0095 25.9828C35.6204 25.7062 35.1095 25.6874 34.7017 25.9312C33.9048 26.4046 33.061 26.7421 32.1845 26.9578C31.7157 27.0703 31.3642 27.4499 31.2845 27.9234L30.7314 31.1953L29.1657 31.1812L28.6126 27.8999C28.5329 27.4312 28.1814 27.0515 27.7126 26.939C26.8454 26.7234 25.9923 26.3671 25.1954 25.889C24.7923 25.6453 24.2814 25.6593 23.8923 25.9312L21.1595 27.8156L20.0532 26.6953L21.9798 24.0328C22.261 23.6437 22.2845 23.1234 22.036 22.7109C21.5626 21.9093 21.2157 21.0562 21.0001 20.1749C20.8876 19.7156 20.5173 19.364 20.0485 19.2749L16.8048 18.689L16.8189 17.114L20.0485 16.5937C20.522 16.5187 20.9064 16.1671 21.0235 15.7031C21.2485 14.8171 21.6001 13.964 22.0876 13.1671C22.336 12.764 22.322 12.2484 22.0501 11.8593L20.1892 9.15932L21.3048 8.05307L23.9579 9.96557C24.3423 10.2468 24.8579 10.2703 25.2704 10.0312C26.0767 9.54838 26.9345 9.20619 27.8204 8.99057C28.2845 8.88275 28.636 8.50775 28.7204 8.04369L29.311 4.80463ZM29.986 12.0421C28.4439 12.0328 26.897 12.6093 25.7204 13.7765C23.3673 16.1015 23.3485 19.9312 25.6735 22.289C27.9985 24.6421 31.8329 24.6609 34.186 22.3359C36.5392 20.0109 36.5579 16.1765 34.2329 13.8234C33.0704 12.6468 31.5282 12.0515 29.986 12.0421ZM29.9767 14.4281C30.9001 14.4328 31.8189 14.7937 32.5267 15.5109C33.9423 16.9406 33.9282 19.214 32.4985 20.6249C31.0689 22.0406 28.7954 22.0312 27.3798 20.6015C25.9642 19.1671 25.9782 16.8937 27.4079 15.4828C28.1251 14.7749 29.0485 14.4234 29.9767 14.4281ZM17.3064 33.5999C14.1751 33.5999 12.7314 34.3499 11.1751 34.9499C11.1751 34.9546 11.1751 34.9546 11.1751 34.9546C8.18917 36.1171 3.07979 38.5265 3.07979 38.5265C2.47979 38.8078 2.22198 39.5249 2.50323 40.1249C2.78917 40.7249 3.50636 40.9827 4.10636 40.7015C4.10636 40.7015 9.24854 38.2781 12.0423 37.1906C13.7673 36.5203 14.5173 35.9999 17.3064 35.9999C23.461 35.9999 23.2126 38.6718 25.8095 40.1999C25.847 40.2234 25.8892 40.2468 25.9314 40.2609C29.1517 41.7046 32.611 41.9999 35.4001 41.9999C36.6329 41.9999 37.411 42.2859 37.8329 42.6046C38.2501 42.9281 38.4001 43.2609 38.4001 43.7999C38.4001 44.4328 38.2407 44.7328 37.8235 45.0374C37.411 45.3374 36.6142 45.5999 35.4001 45.5999H29.1001C26.4564 45.5999 21.9048 44.4374 21.9048 44.4374C21.4923 44.3249 21.047 44.4468 20.7423 44.7515C20.4376 45.0562 20.3204 45.5015 20.4329 45.914C20.5501 46.3312 20.8782 46.6546 21.2954 46.7624C21.2954 46.7624 25.8095 47.9999 29.1001 47.9999H35.4001C36.6235 47.9999 37.6876 47.7984 38.5782 47.3578C38.6954 47.3249 38.8079 47.2734 38.9064 47.2031L50.2876 39.7359C51.9985 38.7468 53.1657 38.4703 53.8501 38.4796C54.5345 38.4937 54.7689 38.6999 54.9751 38.9624C55.2798 39.3562 55.2985 39.5062 55.1017 39.9609C54.9001 40.4203 54.3142 41.1281 53.2595 41.8593C53.2595 41.8593 53.2595 41.8593 53.2548 41.8593C51.9517 42.7687 37.3782 52.2656 35.6954 53.2218C34.4251 53.9437 33.4173 54.7031 32.2689 55.0265C31.1204 55.3453 29.7657 55.3453 27.5251 54.2765C26.0298 53.5593 19.6642 50.2968 17.6017 49.2515C16.4532 48.6703 15.4735 48.3421 14.4751 48.3984C13.472 48.4546 12.6235 48.8812 11.747 49.4343C11.7423 49.4343 11.7376 49.439 11.7376 49.4437L8.76573 51.3421C8.39073 51.5671 8.17042 51.9796 8.18448 52.4156C8.19854 52.8515 8.45167 53.2453 8.84073 53.4421C9.23448 53.639 9.69854 53.6109 10.0595 53.3624L13.0173 51.4687C13.7814 50.9906 14.2126 50.8171 14.6064 50.7937C15.0001 50.7703 15.5392 50.8968 16.5189 51.3937C18.5626 52.4296 24.8298 55.6453 26.4939 56.4374C29.1048 57.689 31.2189 57.8062 32.911 57.3374C34.6032 56.864 35.8079 55.9171 36.8814 55.3078C39.197 53.9906 52.9548 44.9906 54.6282 43.8281C55.8985 42.9421 56.8314 42.0187 57.3048 40.9124C57.7782 39.8062 57.6235 38.4562 56.8689 37.4906C56.8689 37.4906 56.8689 37.4906 56.8689 37.4859C56.2735 36.7265 55.2189 36.1078 53.8923 36.0796C53.1376 36.0656 52.2985 36.239 51.3657 36.5812C51.1923 36.3515 50.9298 36.0515 50.5689 35.789C49.8704 35.2687 48.7595 34.7999 47.2501 34.7999C46.4767 34.7999 45.8439 34.9781 45.3376 35.189C44.6157 34.4999 43.336 33.6234 41.4751 33.6234C39.9657 33.6234 38.5501 34.1296 37.5657 34.7109C37.3829 34.8187 36.9423 35.0953 36.1923 35.564C35.4423 36.0328 34.4626 36.6374 33.497 37.2421C31.9548 38.2031 30.9985 38.8031 30.4454 39.1499C29.2689 38.9156 28.0923 38.5828 26.9814 38.0953C26.0345 37.4859 24.211 33.5999 17.3064 33.5999ZM41.4751 36.0234C42.2345 36.0234 42.7782 36.2156 43.1626 36.4406L37.6126 39.8812C36.9517 39.6937 36.211 39.5999 35.4001 39.5999C35.0532 39.5999 34.6735 39.5765 34.3126 39.5624C34.5376 39.4218 34.5376 39.4218 34.7673 39.2812C35.7329 38.6765 36.7079 38.0671 37.4626 37.5984C38.2126 37.1343 38.8267 36.7546 38.7845 36.7781C39.3517 36.4406 40.5845 36.0234 41.4751 36.0234ZM47.2501 37.1999C48.2251 37.1999 48.7501 37.4484 49.0689 37.6687C49.0501 37.6781 49.036 37.6874 49.0173 37.7015L40.7251 43.139C40.6126 42.4687 40.336 41.8265 39.8954 41.2921L45.6939 37.6968L45.6985 37.6874C45.7454 37.664 46.7485 37.1999 47.2501 37.1999Z" fill="white"/>
</svg>
