<svg width="24" height="24" viewBox="0 0 24 24" fill="none" xmlns="http://www.w3.org/2000/svg">
<path d="M23.1709 17.5448C23.2884 17.4303 23.3715 17.2851 23.4108 17.1258C23.4502 16.9664 23.4441 16.7993 23.3934 16.6432C23.3427 16.4871 23.2493 16.3484 23.1239 16.2426C22.9984 16.1368 22.8458 16.0682 22.6834 16.0446L20.0625 15.6638C19.9213 15.6433 19.7873 15.5888 19.672 15.505C19.5566 15.4211 19.4633 15.3105 19.4002 15.1826L18.2281 12.8077C18.1555 12.6605 18.0431 12.5366 17.9037 12.4499C17.7644 12.3633 17.6035 12.3174 17.4394 12.3174C17.2753 12.3174 17.1145 12.3633 16.9751 12.4499C16.8357 12.5366 16.7234 12.6605 16.6507 12.8077L15.4786 15.1826C15.4155 15.3105 15.3222 15.4211 15.2069 15.505C15.0915 15.5888 14.9575 15.6433 14.8164 15.6638L12.1954 16.0446C12.033 16.0682 11.8804 16.1368 11.755 16.2426C11.6295 16.3484 11.5361 16.4871 11.4854 16.6432C11.4347 16.7993 11.4287 16.9665 11.468 17.1258C11.5073 17.2851 11.5905 17.4303 11.708 17.5448L13.6045 19.3935C13.7067 19.493 13.783 19.6159 13.8271 19.7515C13.8712 19.8871 13.8816 20.0314 13.8575 20.172L13.4098 22.7823C13.382 22.9441 13.4001 23.1104 13.4619 23.2624C13.5237 23.4144 13.6269 23.5461 13.7596 23.6426C13.8924 23.739 14.0495 23.7964 14.2132 23.8082C14.3769 23.8201 14.5406 23.7859 14.6859 23.7095L17.0302 22.477C17.1564 22.4107 17.2968 22.376 17.4394 22.376C17.582 22.376 17.7225 22.4107 17.8487 22.477L20.193 23.7095C20.3382 23.7859 20.5019 23.8201 20.6656 23.8082C20.8293 23.7964 20.9864 23.739 21.1192 23.6426C21.252 23.5461 21.3551 23.4144 21.4169 23.2624C21.4787 23.1104 21.4968 22.9441 21.469 22.7823L21.0214 20.172C20.9973 20.0314 21.0077 19.8871 21.0518 19.7515C21.0958 19.6159 21.1722 19.493 21.2743 19.3935L23.1709 17.5448ZM20.35 17.6002C20.3285 17.7478 20.2493 17.8808 20.1298 17.9701C20.0103 18.0593 19.8602 18.0974 19.7126 18.076C19.1803 17.9988 18.6747 17.7933 18.2395 17.4772C17.8043 17.1611 17.4525 16.7438 17.2145 16.2615C17.1818 16.1953 17.1624 16.1232 17.1576 16.0495C17.1527 15.9759 17.1624 15.9019 17.1861 15.832C17.2098 15.762 17.247 15.6974 17.2957 15.6419C17.3444 15.5863 17.4035 15.5409 17.4697 15.5082C17.536 15.4755 17.608 15.4561 17.6817 15.4513C17.7554 15.4464 17.8293 15.4561 17.8993 15.4798C17.9692 15.5035 18.0338 15.5407 18.0894 15.5894C18.1449 15.6381 18.1903 15.6972 18.223 15.7634C18.3804 16.0822 18.6129 16.3579 18.9006 16.5669C19.1882 16.7758 19.5223 16.9117 19.8741 16.9628C19.9472 16.9734 20.0175 16.9982 20.081 17.036C20.1445 17.0738 20.1999 17.1237 20.2441 17.1829C20.2883 17.2421 20.3204 17.3094 20.3386 17.381C20.3567 17.4526 20.3606 17.5271 20.35 17.6002Z" fill="#979797"/>
<path d="M11.7271 22.5942H11.4375V19.7817C11.4375 19.6326 11.3782 19.4895 11.2727 19.384C11.1673 19.2785 11.0242 19.2192 10.875 19.2192C10.7258 19.2192 10.5827 19.2785 10.4773 19.384C10.3718 19.4895 10.3125 19.6326 10.3125 19.7817V22.5942H5.0625V19.7817C5.0625 19.6326 5.00324 19.4895 4.89775 19.384C4.79226 19.2785 4.64918 19.2192 4.5 19.2192C4.35082 19.2192 4.20774 19.2785 4.10225 19.384C3.99676 19.4895 3.9375 19.6326 3.9375 19.7817V22.5942H2.25C2.10082 22.5942 1.95774 22.535 1.85225 22.4295C1.74676 22.324 1.6875 22.1809 1.6875 22.0317V15.8294C1.6875 15.4431 1.80087 15.0653 2.01355 14.7427C2.22624 14.4202 2.52889 14.1672 2.884 14.0151L5.22858 13.0105C5.41521 13.5121 5.75081 13.9447 6.19033 14.2501C6.62985 14.5555 7.15227 14.7192 7.6875 14.7192C8.22273 14.7192 8.74515 14.5555 9.18467 14.2501C9.62419 13.9447 9.95979 13.5121 10.1464 13.0105L12.4909 14.015C12.7524 14.1269 12.9865 14.294 13.1773 14.5049C13.2396 14.575 13.3185 14.6284 13.4068 14.6602C13.495 14.6921 13.5898 14.7014 13.6826 14.6873C13.7817 14.672 13.875 14.6305 13.9527 14.5671C14.0304 14.5036 14.0897 14.4205 14.1245 14.3264C14.1593 14.2323 14.1682 14.1306 14.1504 14.0319C14.1326 13.9332 14.0887 13.841 14.0233 13.765C13.7222 13.4268 13.3503 13.159 12.934 12.9808L10.3125 11.8577V11.0132C10.6684 10.6657 10.9512 10.2506 11.1444 9.79228C11.3376 9.33395 11.4372 8.84163 11.4375 8.34425V6.84425C11.4375 6.83802 11.4366 6.83162 11.4366 6.82539C11.6764 6.79927 11.9079 6.72192 12.1152 6.59859C12.3226 6.47525 12.501 6.3088 12.6384 6.1105C12.7758 5.91221 12.8691 5.6867 12.9117 5.44925C12.9544 5.2118 12.9456 4.96795 12.8859 4.73421C12.788 4.36759 12.5707 4.0441 12.2682 3.81497C11.9658 3.58584 11.5955 3.46417 11.2161 3.46925H11.186L10.4366 0.865853C10.4024 0.746595 10.3448 0.635326 10.2672 0.538506C10.1896 0.441685 10.0936 0.361241 9.98463 0.301842C9.8757 0.242442 9.75605 0.205272 9.63263 0.192487C9.50921 0.179702 9.38449 0.191558 9.26569 0.227367L7.6875 0.702158L6.10931 0.227367C5.99052 0.191561 5.86579 0.179707 5.74238 0.192494C5.61896 0.20528 5.49931 0.242451 5.39038 0.30185C5.28145 0.361249 5.1854 0.441692 5.1078 0.538511C5.03021 0.63533 4.97262 0.746597 4.93837 0.865853L4.18902 3.46925H4.15891C3.7795 3.46417 3.40924 3.58584 3.10678 3.81497C2.80433 4.0441 2.58697 4.36759 2.48915 4.73421C2.4294 4.96795 2.42057 5.2118 2.46326 5.44925C2.50595 5.6867 2.59916 5.91221 2.73659 6.1105C2.87401 6.3088 3.05243 6.47525 3.25978 6.59859C3.46713 6.72192 3.69855 6.79927 3.93839 6.82539C3.93837 6.83162 3.9375 6.83802 3.9375 6.84425V8.34425C3.93778 8.84163 4.03744 9.33395 4.23063 9.79228C4.42382 10.2506 4.70665 10.6657 5.0625 11.0132V11.8577L2.44114 12.9808C1.88358 13.2196 1.40839 13.6169 1.07444 14.1233C0.740503 14.6296 0.5625 15.2228 0.5625 15.8294V22.0317C0.5625 22.4793 0.74029 22.9085 1.05676 23.225C1.37322 23.5415 1.80245 23.7192 2.25 23.7192H11.7039C11.7837 23.7192 11.8625 23.7027 11.9356 23.6707C12.0086 23.6387 12.0742 23.592 12.1283 23.5334C12.1824 23.4747 12.2237 23.4056 12.2497 23.3302C12.2757 23.2548 12.2858 23.1749 12.2794 23.0954L12.2784 23.084C12.2644 22.9482 12.2 22.8226 12.098 22.7319C11.9959 22.6413 11.8636 22.5922 11.7271 22.5942ZM9.1875 12.1561C9.18594 12.1684 9.18164 12.1799 9.18091 12.1924C9.15687 12.5721 8.98907 12.9285 8.71165 13.1889C8.43422 13.4493 8.06801 13.5943 7.6875 13.5943C7.30699 13.5943 6.94078 13.4493 6.66335 13.1889C6.38593 12.9285 6.21813 12.5721 6.19409 12.1924C6.19336 12.1799 6.18906 12.1684 6.1875 12.1561V11.779C6.66025 11.9869 7.17105 12.0942 7.6875 12.0942C8.20395 12.0942 8.71475 11.9869 9.1875 11.779V12.1561ZM10.3125 8.34425C10.3125 9.04044 10.0359 9.70812 9.54366 10.2004C9.05137 10.6927 8.38369 10.9692 7.6875 10.9692C6.99131 10.9692 6.32363 10.6927 5.83134 10.2004C5.33906 9.70812 5.0625 9.04044 5.0625 8.34425V6.84425H10.3125V8.34425ZM5.96704 1.35932L7.41852 1.79603C7.59398 1.8486 7.78102 1.8486 7.95648 1.79603L9.40796 1.35932L10.0153 3.46925H5.35969L5.96704 1.35932ZM4.125 5.71925C3.97582 5.71925 3.83274 5.65999 3.72725 5.5545C3.62176 5.44901 3.5625 5.30593 3.5625 5.15675C3.5625 5.00756 3.62176 4.86449 3.72725 4.759C3.83274 4.65351 3.97582 4.59425 4.125 4.59425H11.25C11.3992 4.59425 11.5423 4.65351 11.6477 4.759C11.7532 4.86449 11.8125 5.00756 11.8125 5.15675C11.8125 5.30593 11.7532 5.44901 11.6477 5.5545C11.5423 5.65999 11.3992 5.71925 11.25 5.71925H4.125Z" fill="#979797"/>
</svg>
