<svg width="26" height="26" viewBox="0 0 26 26" fill="none" xmlns="http://www.w3.org/2000/svg">
<g clip-path="url(#clip0_269_416)">
<path d="M18.2185 0.695312H8.06226C7.69979 0.695752 7.3523 0.839935 7.09599 1.09624C6.83969 1.35254 6.69551 1.70003 6.69507 2.0625V9.875C6.69551 10.2375 6.83969 10.585 7.09599 10.8413C7.3523 11.0976 7.69979 11.2417 8.06226 11.2422H10.554L12.7261 13.4143C12.7805 13.4687 12.8451 13.5119 12.9162 13.5413C12.9872 13.5708 13.0634 13.5859 13.1404 13.5859C13.2173 13.5859 13.2935 13.5708 13.3646 13.5413C13.4357 13.5119 13.5003 13.4687 13.5547 13.4143L15.7267 11.2422H18.2185C18.581 11.2417 18.9285 11.0976 19.1848 10.8413C19.4411 10.585 19.5853 10.2375 19.5857 9.875V2.0625C19.5853 1.70003 19.4411 1.35254 19.1848 1.09624C18.9285 0.839934 18.581 0.695751 18.2185 0.695312ZM9.5271 6.94531C9.33395 6.94531 9.14515 6.88804 8.98455 6.78073C8.82396 6.67343 8.69879 6.52091 8.62487 6.34246C8.55096 6.16402 8.53162 5.96767 8.5693 5.77823C8.60698 5.5888 8.69999 5.41479 8.83657 5.27822C8.97314 5.14164 9.14715 5.04863 9.33658 5.01095C9.52602 4.97327 9.72237 4.99261 9.90081 5.06652C10.0793 5.14044 10.2318 5.26561 10.3391 5.4262C10.4464 5.5868 10.5037 5.7756 10.5037 5.96875C10.5037 6.09699 10.4784 6.22398 10.4293 6.34246C10.3802 6.46095 10.3083 6.5686 10.2176 6.65928C10.127 6.74997 10.0193 6.8219 9.90081 6.87098C9.78233 6.92005 9.65534 6.94531 9.5271 6.94531ZM13.1404 6.94531C12.9472 6.94531 12.7584 6.88804 12.5978 6.78073C12.4372 6.67343 12.3121 6.52091 12.2382 6.34246C12.1642 6.16402 12.1449 5.96767 12.1826 5.77823C12.2203 5.5888 12.3133 5.41479 12.4498 5.27822C12.5864 5.14164 12.7604 5.04863 12.9499 5.01095C13.1393 4.97327 13.3357 4.99261 13.5141 5.06652C13.6925 5.14044 13.8451 5.26561 13.9524 5.4262C14.0597 5.5868 14.1169 5.7756 14.1169 5.96875C14.1169 6.09699 14.0917 6.22398 14.0426 6.34246C13.9935 6.46095 13.9216 6.5686 13.8309 6.65928C13.7402 6.74997 13.6326 6.8219 13.5141 6.87098C13.3956 6.92005 13.2686 6.94531 13.1404 6.94531ZM16.7537 6.94531C16.5605 6.94531 16.3717 6.88804 16.2111 6.78073C16.0505 6.67343 15.9254 6.52091 15.8514 6.34246C15.7775 6.16402 15.7582 5.96767 15.7959 5.77823C15.8335 5.5888 15.9266 5.41479 16.0631 5.27822C16.1997 5.14164 16.3737 5.04863 16.5631 5.01095C16.7526 4.97327 16.9489 4.99261 17.1274 5.06652C17.3058 5.14044 17.4583 5.26561 17.5656 5.4262C17.6729 5.5868 17.7302 5.7756 17.7302 5.96875C17.7302 6.22775 17.6273 6.47614 17.4442 6.65928C17.2611 6.84242 17.0127 6.94531 16.7537 6.94531Z" fill="white"/>
<path d="M24.717 14.0753C24.2507 13.61 23.6188 13.3486 22.96 13.3486C22.3012 13.3486 21.6693 13.61 21.203 14.0753L18.4097 16.8686C18.363 16.2943 18.1021 15.7585 17.6787 15.3675C17.2553 14.9766 16.7004 14.7591 16.1242 14.7581H8.03069C7.40622 14.7564 6.7876 14.8786 6.21067 15.1176C5.63374 15.3566 5.10995 15.7077 4.66963 16.1505L1.00759 19.8126C0.953174 19.867 0.910004 19.9316 0.880551 20.0027C0.851097 20.0738 0.835938 20.15 0.835938 20.2269C0.835937 20.3038 0.851097 20.38 0.880551 20.4511C0.910004 20.5222 0.953174 20.5868 1.00759 20.6412L5.4997 25.1334C5.55409 25.1878 5.61867 25.2309 5.68976 25.2604C5.76084 25.2899 5.83702 25.305 5.91397 25.305H6.69522C6.77216 25.305 6.84834 25.2899 6.91942 25.2604C6.9905 25.2309 7.05509 25.1878 7.10948 25.1334L8.012 24.2308H15.9541C16.627 24.2327 17.2936 24.101 17.9153 23.8435C18.5371 23.586 19.1015 23.2077 19.576 22.7305L24.717 17.5894C24.9479 17.3588 25.131 17.0849 25.256 16.7834C25.381 16.4819 25.4453 16.1587 25.4453 15.8324C25.4453 15.506 25.381 15.1829 25.256 14.8814C25.131 14.5799 24.9479 14.306 24.717 14.0753ZM23.8885 16.7609L18.7475 21.9019C18.3815 22.2699 17.9462 22.5616 17.4667 22.7602C16.9872 22.9588 16.473 23.0604 15.9541 23.0589H7.76939C7.69245 23.0589 7.61627 23.0741 7.54519 23.1035C7.47411 23.133 7.40953 23.1762 7.35513 23.2306L6.45259 24.1331H6.15657L2.25039 20.2269L5.49816 16.9791C5.82996 16.6454 6.22464 16.3809 6.65935 16.2009C7.09406 16.0208 7.56017 15.9287 8.03069 15.93H16.1242C16.422 15.93 16.7077 16.0483 16.9183 16.259C17.1289 16.4696 17.2472 16.7552 17.2472 17.0531C17.2472 17.3509 17.1289 17.6366 16.9183 17.8472C16.7077 18.0578 16.422 18.1761 16.1242 18.1761H12.2668C12.1114 18.1761 11.9624 18.2378 11.8525 18.3477C11.7426 18.4576 11.6809 18.6067 11.6809 18.7621C11.6809 18.9175 11.7426 19.0665 11.8525 19.1764C11.9624 19.2863 12.1114 19.348 12.2668 19.348H17.3449C17.5002 19.3479 17.6493 19.2862 17.7591 19.1763L22.0315 14.9039C22.1534 14.7819 22.2982 14.6852 22.4575 14.6192C22.6168 14.5532 22.7876 14.5193 22.96 14.5193C23.1324 14.5193 23.3032 14.5533 23.4625 14.6192C23.6218 14.6852 23.7666 14.782 23.8885 14.9039C24.0104 15.0258 24.1071 15.1706 24.1731 15.3299C24.2391 15.4892 24.2731 15.6599 24.2731 15.8324C24.2731 16.0048 24.2391 16.1756 24.1731 16.3349C24.1071 16.4942 24.0104 16.6389 23.8885 16.7609L23.8885 16.7609Z" fill="white"/>
</g>
<defs>
<clipPath id="clip0_269_416">
<rect width="25" height="25" fill="white" transform="translate(0.640625 0.5)"/>
</clipPath>
</defs>
</svg>
