<svg width="23" height="22" viewBox="0 0 23 22" fill="none" xmlns="http://www.w3.org/2000/svg">
<path d="M8.53989 18.5863C8.36524 18.5863 8.19059 18.5251 8.05271 18.3938C7.78614 18.1401 7.78614 17.7201 8.05271 17.4663L14.0459 11.7613C14.4872 11.3413 14.4872 10.6588 14.0459 10.2388L8.05271 4.53383C7.78614 4.28008 7.78614 3.86008 8.05271 3.60633C8.31928 3.35258 8.7605 3.35258 9.02707 3.60633L15.0203 9.31133C15.4891 9.75758 15.7557 10.3613 15.7557 11.0001C15.7557 11.6388 15.4983 12.2426 15.0203 12.6888L9.02707 18.3938C8.88919 18.5163 8.71454 18.5863 8.53989 18.5863Z" fill="#143A5A"/>
</svg>
