<svg width="23" height="22" viewBox="0 0 23 22" fill="none" xmlns="http://www.w3.org/2000/svg">
<path d="M14.1789 18.5863C14.3535 18.5863 14.5282 18.5251 14.666 18.3938C14.9326 18.1401 14.9326 17.7201 14.666 17.4663L8.67282 11.7613C8.2316 11.3413 8.2316 10.6588 8.67282 10.2388L14.666 4.53383C14.9326 4.28008 14.9326 3.86008 14.666 3.60633C14.3995 3.35258 13.9583 3.35258 13.6917 3.60633L7.69846 9.31133C7.22967 9.75758 6.9631 10.3613 6.9631 11.0001C6.9631 11.6388 7.22047 12.2426 7.69846 12.6888L13.6917 18.3938C13.8296 18.5163 14.0042 18.5863 14.1789 18.5863Z" fill="white"/>
</svg>
