<svg width="27" height="26" viewBox="0 0 27 26" fill="none" xmlns="http://www.w3.org/2000/svg">
<path d="M9.91466 21.851C9.7109 21.851 9.50715 21.7796 9.34629 21.6265C9.03529 21.3304 9.03529 20.8404 9.34629 20.5444L16.3384 13.8885C16.8531 13.3985 16.8531 12.6023 16.3384 12.1123L9.34629 5.45646C9.03529 5.16042 9.03529 4.67042 9.34629 4.37438C9.65728 4.07833 10.172 4.07833 10.483 4.37438L17.4751 11.0302C18.0221 11.5508 18.3331 12.2552 18.3331 13.0004C18.3331 13.7456 18.0328 14.45 17.4751 14.9706L10.483 21.6265C10.3222 21.7694 10.1184 21.851 9.91466 21.851Z" fill="white"/>
</svg>
