<svg width="70" height="70" viewBox="0 0 70 70" fill="none" xmlns="http://www.w3.org/2000/svg">
<path d="M33.5 30.5L42.5 22L44 20L60 36.5L66 28.5L64.5 17L55.5 7.5H42.5L27 22L26 28.5L33.5 30.5Z" fill="#FF9F0D"/>
<path d="M43.5 57L21.5 35.5L16.5 38.5L14 42.5L36.5 64L43.5 57Z" fill="#FF9F0D"/>
<path d="M21 5.56738C16.346 5.56738 11.6921 7.35019 8.12104 10.9213C0.978857 18.0635 0.978857 29.5369 8.12104 36.6791L12.414 40.9721C12.3539 41.2674 12.321 41.5627 12.321 41.8635C12.321 42.9791 12.7367 43.958 13.5789 44.8002L15.5367 46.7635C16.2148 47.5728 17.2867 47.983 18.375 48.0103C18.446 48.9729 18.8453 49.9244 19.6 50.6791L21.5632 52.6369C22.3289 53.408 23.2257 53.8072 24.232 53.8729C24.2593 54.9447 24.6695 55.8908 25.4789 56.7002L27.4367 58.6635C28.1148 59.4729 29.1867 59.883 30.2695 59.9104C30.3296 60.9166 30.7289 61.808 31.5 62.5791L33.4632 64.5369C34.2999 65.3791 35.2789 65.8002 36.4 65.8002C37.3789 65.8002 38.5 65.3791 39.3367 64.5369L43.5367 60.3369C44.2585 59.6807 44.6468 58.8166 44.7562 57.9088C45.6585 57.7994 46.4734 57.4057 47.1789 56.7002L49.7 54.1791C50.4546 53.4244 50.8539 52.4729 50.9249 51.5103C52.0132 51.483 53.0851 51.0728 53.7632 50.2635L55.721 48.3002C56.5085 47.5783 56.9078 46.6104 56.9625 45.615C57.9906 45.5549 59.0023 45.1447 59.7789 44.2369L61.7367 42.2791C63.3007 40.8463 63.3937 38.4564 62.0484 36.7721C65.3023 33.4307 67.2 28.8916 67.2 24.0791C67.2 19.1791 65.3789 14.4213 61.8789 11.058C54.7367 3.92129 43.121 3.92129 35.9789 10.9213L34.9289 11.9713L33.8789 10.9213C30.3078 7.35019 25.6539 5.56738 21 5.56738ZM21 8.40019C24.921 8.40019 28.8421 9.93691 31.921 12.8791L32.9 13.858L25.7632 21.0002C23.2421 23.5213 23.2421 27.5791 25.7632 30.1002C27.021 31.358 28.7 32.0635 30.3789 32.0635C32.0578 32.0635 33.6 31.5002 34.8632 30.2369L43.2523 21.8479L59.6367 38.5002C60.2 39.058 60.2 39.9002 59.6367 40.4635L57.6789 42.4213C57.121 42.9791 56.2789 42.9791 55.721 42.4213L47.1789 34.0213C46.621 33.4635 45.7789 33.4635 45.221 34.0213C44.6632 34.5791 44.6632 35.4213 45.221 35.9791L53.7632 44.3791C54.321 44.9369 54.321 45.7791 53.7632 46.3369L51.7999 48.3002C51.2421 48.858 50.4 48.858 49.8367 48.3002L41.4367 39.9002C41.1414 39.5994 40.764 39.4736 40.3867 39.49C40.0148 39.4736 39.6375 39.5994 39.3367 39.9002C38.7789 40.458 38.7789 41.3002 39.3367 41.8635L47.7367 50.2635C48.021 50.5424 48.1632 50.8213 48.1632 51.2369C48.1632 51.658 48.021 51.9424 47.7367 52.2213L45.221 54.7369C44.8984 55.0596 44.4882 55.1744 44.0945 55.1307C43.9359 54.8955 43.75 54.6713 43.5367 54.4635L41.5789 52.5002C40.8351 51.7564 39.8015 51.3846 38.757 51.3572C38.7023 50.3619 38.3031 49.3611 37.521 48.5791L35.5632 46.6213C34.8414 45.8393 33.8789 45.4346 32.889 45.3853C32.8617 44.3135 32.4515 43.3729 31.6367 42.5635L29.6789 40.6002C28.9351 39.8564 27.9015 39.4846 26.857 39.4572C26.8023 38.4619 26.4031 37.4611 25.621 36.6791L23.6632 34.7213C22.121 33.0424 19.4578 33.0424 17.7789 34.7213L13.9289 38.5713L10.0789 34.7213C4.05777 28.7002 4.05777 18.9002 10.0789 12.8791C13.1578 9.93691 17.0789 8.40019 21 8.40019ZM48.8632 8.54238C52.7789 8.54238 56.7 10.0791 59.7789 13.0213L59.921 13.158C62.8632 16.1002 64.4 19.8791 64.4 24.0791C64.4 28.0439 62.9234 31.8666 60.1179 34.7814L44.3789 19.0369C44.3515 19.015 44.3187 19.0041 44.2968 18.9822C44.2695 18.9549 44.264 18.9221 44.2367 18.9002C43.6789 18.3424 42.8367 18.3424 42.2789 18.9002L32.9 28.2791C31.5 29.6791 29.121 29.6791 27.721 28.2791C27.021 27.5791 26.6 26.6002 26.6 25.6213C26.6 24.6424 27.021 23.6635 27.721 22.9635L35.771 14.9135L35.8367 14.9791L37.9367 13.0213C40.8789 10.0791 44.9421 8.54238 48.8632 8.54238ZM20.8632 36.1213C21.1421 36.1213 21.5578 36.258 21.8367 36.5369L23.8 38.5002C24.3578 39.058 24.3578 39.9002 23.8 40.4635L19.6 44.6635C19.0421 45.2213 18.2 45.2213 17.6367 44.6635L15.6789 42.7002C15.4 42.4213 15.2632 42.1424 15.2632 41.7213C15.2632 41.3002 15.4 41.0213 15.6789 40.7369L19.8789 36.5369C20.1578 36.258 20.4421 36.1213 20.8632 36.1213ZM26.7367 42.1369C27.1578 42.1369 27.4421 42.2791 27.721 42.5635L29.6789 44.5213C29.9578 44.8002 30.1 45.0791 30.1 45.5002C30.1 45.9213 29.9578 46.2002 29.6789 46.4791L25.4789 50.6791C24.921 51.2369 24.0789 51.2369 23.521 50.6791L21.5632 48.7213C21 48.1635 21 47.3213 21.5632 46.7635L25.7632 42.5635C26.0421 42.2791 26.321 42.1369 26.7367 42.1369ZM32.6757 48.0213C33.0421 48.0213 33.3921 48.158 33.6 48.4369L35.5632 50.4002C36.121 50.958 36.121 51.8002 35.5632 52.3635L31.3632 56.5635C30.7999 57.1213 29.9578 57.1213 29.4 56.5635L27.4367 54.6002C27.1578 54.3213 27.021 54.0424 27.021 53.6213C27.021 53.2002 27.1578 52.9213 27.4367 52.6369L31.6367 48.4369C31.921 48.158 32.3039 48.0213 32.6757 48.0213ZM38.6367 54.0369C39.0578 54.0369 39.3421 54.1791 39.621 54.4635L41.5789 56.4213C41.8578 56.7002 42 56.9791 42 57.4002C42 57.8213 41.8578 58.1002 41.5789 58.3791L37.3789 62.5791C36.821 63.1369 35.9789 63.1369 35.421 62.5791L33.4632 60.6213C33.1789 60.3424 33.0367 60.058 33.0367 59.6369C33.0367 59.2213 33.1789 58.9424 33.4632 58.6635L37.6632 54.4635C37.9421 54.1791 38.221 54.0369 38.6367 54.0369Z" fill="black"/>
</svg>
