<svg width="70" height="70" viewBox="0 0 70 70" fill="none" xmlns="http://www.w3.org/2000/svg">
<path d="M55.5 5.5H49L48.5 12.5L56.5 12L53.5 8.5L55.5 5.5Z" fill="#FF9F0D"/>
<path d="M25.2 2.7998C20.5773 2.7998 16.8 6.57719 16.8 11.1998C16.8 15.8224 20.5773 19.5998 25.2 19.5998C29.8226 19.5998 33.6 15.8224 33.6 11.1998C33.6 6.57719 29.8226 2.7998 25.2 2.7998ZM47.5999 2.7998C47.2287 2.79984 46.8726 2.94735 46.61 3.2099C46.3475 3.47244 46.2 3.82851 46.2 4.1998V12.5998V20.9998H18.9C14.6641 20.9998 11.2 24.464 11.2 28.6998V44.7998C11.2 47.1028 13.097 48.9998 15.4 48.9998C15.8925 48.9998 16.3591 48.8963 16.8 48.7373V62.2998C16.8 64.9895 19.0103 67.1998 21.7 67.1998C23.0753 67.1998 24.3204 66.6176 25.2136 65.6932C26.2165 66.7213 27.6454 67.3311 29.2003 67.1752C31.7965 66.9145 33.6 64.602 33.6 62.1002V29.3998H47.4496C49.4821 29.3998 51.4004 28.0129 51.7453 25.8943C52.082 23.8263 50.8211 21.9398 49 21.2732V13.9998H58.7999C59.0768 13.9997 59.3474 13.9175 59.5775 13.7637C59.8077 13.6098 59.987 13.3912 60.093 13.1354C60.1989 12.8797 60.2266 12.5983 60.1727 12.3267C60.1187 12.0552 59.9855 11.8058 59.7898 11.61L56.5796 8.3998L59.7898 5.18965C59.9855 4.99383 60.1187 4.7444 60.1727 4.47287C60.2266 4.20135 60.1989 3.91993 60.093 3.66416C59.987 3.4084 59.8077 3.18978 59.5775 3.03593C59.3474 2.88208 59.0768 2.79991 58.7999 2.7998H47.5999ZM25.2 5.5998C28.3093 5.5998 30.8 8.09043 30.8 11.1998C30.8 14.3092 28.3093 16.7998 25.2 16.7998C22.0906 16.7998 19.6 14.3092 19.6 11.1998C19.6 8.09043 22.0906 5.5998 25.2 5.5998ZM49 5.5998H55.4203L53.6101 7.40996C53.3477 7.67252 53.2002 8.02856 53.2002 8.3998C53.2002 8.77104 53.3477 9.12709 53.6101 9.38965L55.4203 11.1998H49V5.5998ZM18.9 23.7998H47.5999C48.469 23.7998 49.1337 24.507 48.9808 25.4459C48.8776 26.0797 48.2058 26.5998 47.4496 26.5998H33.6C32.0697 26.5998 30.8 27.8695 30.8 29.3998V62.1002C30.8 63.2599 29.9694 64.2842 28.9214 64.3889C27.6244 64.5189 26.6 63.5494 26.6 62.2998V46.1998H23.8V62.2998C23.8 63.4769 22.8771 64.3998 21.7 64.3998C20.5228 64.3998 19.6 63.4769 19.6 62.2998V32.1998H16.8V44.7998C16.8 45.5908 16.191 46.1998 15.4 46.1998C14.6089 46.1998 14 45.5908 14 44.7998V28.6998C14 25.9776 16.1778 23.7998 18.9 23.7998Z" fill="black"/>
</svg>
