<svg width="70" height="70" viewBox="0 0 70 70" fill="none" xmlns="http://www.w3.org/2000/svg">
<circle cx="38.5" cy="14.875" r="11.375" fill="#FF9F0D"/>
<circle cx="52.5" cy="14" r="10.5" fill="#FF9F0D"/>
<circle cx="45.5" cy="20.125" r="11.375" fill="#FF9F0D"/>
<g clip-path="url(#clip0_88_235)">
<path d="M36.3999 1.3999C30.2312 1.3999 25.1999 6.43115 25.1999 12.5999C25.1999 15.1976 26.5124 17.7296 28.3062 20.2124C30.0999 22.6952 32.4187 25.1124 34.7374 27.2562C39.3749 31.5382 44.0124 34.7374 44.0124 34.7374L44.7999 35.3062L45.5874 34.7374C45.5874 34.7374 50.2304 31.5437 54.8624 27.2562C57.1811 25.1124 59.4999 22.6897 61.2937 20.2124C63.0874 17.7351 64.3999 15.1866 64.3999 12.5999C64.3999 6.43115 59.3687 1.3999 53.1999 1.3999C49.8093 1.3999 46.8507 2.99131 44.7999 5.38115C42.7491 2.99131 39.7905 1.3999 36.3999 1.3999ZM36.3999 4.1999C39.4679 4.1999 42.1476 5.8624 43.6187 8.3124L44.7999 10.2812L45.9812 8.3124C47.4522 5.8624 50.1319 4.1999 53.1999 4.1999C57.8538 4.1999 61.5999 7.946 61.5999 12.5999C61.5999 14.164 60.6374 16.3077 59.0187 18.5499C57.3999 20.7921 55.1687 23.1327 52.9374 25.1999C48.8687 28.9679 45.4944 31.314 44.7999 31.8062C44.1054 31.314 40.7312 28.9569 36.6624 25.1999C34.4312 23.1382 32.1999 20.8358 30.5812 18.5937C28.9624 16.3515 27.9999 14.1858 27.9999 12.5999C27.9999 7.946 31.746 4.1999 36.3999 4.1999ZM64.3999 36.4437C63.0437 36.5257 61.6874 37.1437 60.6812 38.1499L46.9874 51.7999H34.2124L33.6437 51.2312L41.8249 49.6124C43.914 49.1968 45.7077 47.6108 46.1124 45.4124C46.7085 42.1476 44.1546 39.1999 40.9499 39.1999H21.4374C18.096 39.1999 14.8749 40.5124 12.5124 42.8749L0.393652 54.9937L-0.568848 55.9999L0.393652 57.0062L12.9937 69.6062L13.9999 70.5687L15.0062 69.6062L19.7749 64.7937C20.0374 64.5312 20.3655 64.3999 20.7374 64.3999H46.6812C48.5351 64.3999 50.3124 63.6562 51.6249 62.3437L68.4249 45.5437C70.5741 43.3944 70.4866 39.8069 68.2062 37.7562C67.1124 36.7718 65.7561 36.3616 64.3999 36.4437ZM64.5312 39.2437C65.1983 39.1944 65.871 39.4077 66.3687 39.8562C67.4897 40.8624 67.5007 42.5304 66.4562 43.5749L49.6562 60.3749C48.8687 61.1624 47.7968 61.5999 46.6812 61.5999H20.7374C19.6218 61.5999 18.5937 62.0374 17.8062 62.8249L13.9999 66.5874L3.4124 55.9999L14.5249 44.8874C16.3624 43.0499 18.8397 41.9999 21.4374 41.9999H40.9499C42.4702 41.9999 43.6515 43.3069 43.3562 44.9312C43.1812 45.8827 42.3062 46.6483 41.2562 46.8562L30.5374 49.0437L27.9562 49.5249L29.7937 51.4062L32.5937 54.2062L33.0312 54.5999H48.1687L48.6062 54.2062L62.6499 40.1187C63.1585 39.6101 63.864 39.2929 64.5312 39.2437Z" fill="black"/>
</g>
<defs>
<clipPath id="clip0_88_235">
<rect width="70" height="70" fill="white"/>
</clipPath>
</defs>
</svg>
