<svg width="26" height="26" viewBox="0 0 26 26" fill="none" xmlns="http://www.w3.org/2000/svg">
<g clip-path="url(#clip0_269_421)">
<path d="M22.9584 15.8458C22.6894 15.8461 22.4228 15.8968 22.1724 15.9951L17.9497 17.4527C17.9364 16.7688 17.6557 16.1173 17.1677 15.638C16.6798 15.1587 16.0234 14.8897 15.3394 14.8887H12.6134C12.3155 14.8886 12.0234 14.8057 11.7698 14.6493L10.8052 14.0487C10.4112 13.8009 9.96078 13.6572 9.4961 13.631C9.03143 13.6048 8.56769 13.6969 8.14833 13.8988L6.61153 14.6309V14.498C6.61072 14.0317 6.42496 13.5847 6.095 13.2552C5.76503 12.9256 5.31782 12.7404 4.85148 12.7402H2.2603C1.79395 12.7404 1.34674 12.9256 1.01678 13.2552C0.686813 13.5847 0.50105 14.0317 0.500244 14.498V22.4937C0.50105 22.96 0.686813 23.407 1.01678 23.7365C1.34674 24.0661 1.79395 24.2513 2.2603 24.2515H4.85148C5.28616 24.2504 5.70497 24.088 6.02682 23.7958C6.34867 23.5036 6.55067 23.1024 6.59369 22.6699H8.09981C8.30169 22.669 8.50188 22.7067 8.68956 22.7811L12.1054 24.1317C12.7884 24.4032 13.5513 24.3926 14.2266 24.1023L23.8106 19.9689C24.265 19.7732 24.638 19.4266 24.8666 18.9877C25.0951 18.5489 25.1653 18.0446 25.0651 17.56C24.965 17.0754 24.7007 16.6403 24.3169 16.328C23.9331 16.0156 23.4533 15.8453 22.9584 15.8458ZM4.85148 23.0796H2.2603C2.10485 23.0795 1.95578 23.0178 1.84579 22.9079C1.7358 22.7981 1.67388 22.6491 1.67361 22.4937V14.498C1.67388 14.3426 1.7358 14.1936 1.84579 14.0838C1.95578 13.9739 2.10485 13.9122 2.2603 13.9121H4.85148C5.00693 13.9122 5.156 13.9739 5.26598 14.0838C5.37597 14.1936 5.43789 14.3426 5.43816 14.498V22.4937C5.43789 22.6491 5.37597 22.7981 5.26598 22.9079C5.156 23.0178 5.00693 23.0795 4.85148 23.0796ZM23.3438 18.8937L13.7606 23.0269C13.5681 23.1097 13.3613 23.1537 13.1518 23.1565C12.9424 23.1593 12.7344 23.1208 12.5399 23.0432L9.12345 21.6924C8.79777 21.5628 8.4503 21.4969 8.09981 21.498H6.61153V15.9295L8.65345 14.9566C8.89483 14.8403 9.16176 14.7871 9.42927 14.8021C9.69678 14.8171 9.95611 14.8997 10.183 15.0422L11.1513 15.6451C11.5906 15.9166 12.0969 16.0604 12.6134 16.0606H15.3394C15.7213 16.0612 16.0873 16.2134 16.3571 16.4836C16.627 16.7538 16.7786 17.1201 16.7788 17.5019C16.7749 17.6366 16.7197 17.7646 16.6244 17.8598C16.5291 17.955 16.401 18.01 16.2664 18.0137H10.1962C10.0408 18.0137 9.89174 18.0754 9.78186 18.1853C9.67197 18.2952 9.61024 18.4442 9.61024 18.5996C9.61024 18.755 9.67197 18.9041 9.78186 19.0139C9.89174 19.1238 10.0408 19.1856 10.1962 19.1856H16.2664C16.503 19.185 16.7367 19.1342 16.9522 19.0366L22.582 17.0928C22.7016 17.0442 22.8294 17.0187 22.9584 17.0176C23.1836 17.0176 23.4019 17.0953 23.5764 17.2375C23.7509 17.3798 23.8709 17.578 23.9163 17.7985C23.9616 18.0191 23.9293 18.2485 23.8251 18.448C23.7208 18.6476 23.5508 18.805 23.3438 18.8937V18.8937Z" fill="#979797"/>
<path d="M19.0222 2.83322C18.2785 2.08962 17.27 1.67188 16.2184 1.67188C15.1668 1.67188 14.1583 2.08962 13.4146 2.83322L12.8206 3.42736L12.2264 2.83322C11.4828 2.08962 10.4742 1.67187 9.42263 1.67188C8.37101 1.67189 7.36246 2.08965 6.61886 2.83326C5.87526 3.57688 5.45751 4.58543 5.45752 5.63705C5.45753 6.68867 5.87529 7.69721 6.6189 8.44081L10.0168 11.8387C10.7604 12.5823 11.7689 13 12.8205 13C13.8721 13 14.8807 12.5823 15.6243 11.8387L19.0222 8.44082C19.7658 7.6972 20.1835 6.68864 20.1835 5.63702C20.1835 4.58539 19.7658 3.57684 19.0222 2.83322ZM18.0552 7.47423C17.9452 7.58375 17.7963 7.64516 17.641 7.64497C17.4858 7.64479 17.337 7.58303 17.2273 7.47324C17.1175 7.36346 17.0559 7.21462 17.0557 7.0594C17.0556 6.90417 17.1171 6.75525 17.2267 6.6453C17.3592 6.51293 17.4643 6.35573 17.5361 6.1827C17.6078 6.00967 17.6447 5.82419 17.6447 5.63688C17.6447 5.44957 17.6078 5.2641 17.5361 5.09107C17.4643 4.91804 17.3592 4.76084 17.2267 4.62847C16.955 4.3692 16.5939 4.22455 16.2184 4.22459C15.8429 4.22462 15.4818 4.36934 15.2102 4.62866C15.1558 4.68309 15.0912 4.72627 15.0201 4.75573C14.949 4.7852 14.8728 4.80037 14.7959 4.80039C14.7189 4.80041 14.6427 4.78527 14.5716 4.75584C14.5005 4.7264 14.4359 4.68325 14.3815 4.62885C14.3271 4.57445 14.2839 4.50986 14.2544 4.43876C14.2249 4.36767 14.2098 4.29147 14.2097 4.21452C14.2097 4.13756 14.2249 4.06136 14.2543 3.99025C14.2837 3.91915 14.3269 3.85454 14.3813 3.80011C14.6225 3.5585 14.9089 3.36678 15.2242 3.23593C15.5395 3.10507 15.8775 3.03764 16.2188 3.03748C16.5602 3.03733 16.8983 3.10446 17.2137 3.23503C17.5291 3.3656 17.8157 3.55705 18.0571 3.79845C18.2985 4.03984 18.4899 4.32644 18.6204 4.64187C18.751 4.95729 18.8181 5.29535 18.8179 5.63672C18.8178 5.9781 18.7503 6.31609 18.6194 6.63138C18.4886 6.94667 18.2968 7.23308 18.0552 7.47423Z" fill="#979797"/>
</g>
<defs>
<clipPath id="clip0_269_421">
<rect width="25" height="25" fill="white" transform="translate(0.304932 0.5)"/>
</clipPath>
</defs>
</svg>
