<svg width="64" height="50" viewBox="0 0 64 50" fill="none" xmlns="http://www.w3.org/2000/svg">
<path opacity="0.2" d="M51.1688 0H62.0492C59.6313 3.6036 57.5157 7.5075 55.7023 11.7117C53.8889 15.7658 52.7555 19.6697 52.3022 23.4234C52.4533 23.4234 52.6044 23.4234 52.7555 23.4234C52.9066 23.4234 53.0577 23.4234 53.2089 23.4234C56.6845 24.3243 59.3291 25.976 61.1425 28.3784C62.9559 30.6306 63.8625 33.2583 63.8625 36.2613C63.8625 38.6637 63.2581 40.9159 62.0492 43.018C60.9913 44.97 59.4046 46.6216 57.289 47.973C55.3245 49.3243 53.0578 50 50.4888 50C46.5598 50 43.2352 48.7237 40.5151 46.1712C37.795 43.6186 36.435 40.1652 36.435 35.8108C36.435 30.1051 37.9462 23.6486 40.9685 16.4414C43.9908 9.23423 47.3909 3.75375 51.1688 0ZM15.5651 0H26.4455C24.0276 3.6036 21.912 7.5075 20.0986 11.7117C18.2852 15.7658 17.1518 19.6697 16.6985 23.4234C16.8496 23.4234 17.0007 23.4234 17.1518 23.4234C17.3029 23.4234 17.4541 23.4234 17.6052 23.4234C21.0808 24.3243 23.7254 25.976 25.5388 28.3784C27.3522 30.6306 28.2589 33.2583 28.2589 36.2613C28.2589 38.6637 27.6544 40.9159 26.4455 43.018C25.3877 44.97 23.8009 46.6216 21.6853 47.973C19.7208 49.3243 17.4541 50 14.8851 50C10.9561 50 7.63152 48.7237 4.91143 46.1712C2.19134 43.6186 0.831299 40.1652 0.831299 35.8108C0.831299 30.1051 2.34246 23.6486 5.36478 16.4414C8.3871 9.23423 11.7872 3.75375 15.5651 0Z" fill="#979797"/>
</svg>
