<svg width="60" height="60" viewBox="0 0 60 60" fill="none" xmlns="http://www.w3.org/2000/svg">
<g clip-path="url(#clip0_88_196)">
<path d="M20.4001 2.40002C16.4391 2.40002 13.2001 5.63909 13.2001 9.60002C13.2001 11.9813 14.372 14.1 16.1626 15.4125C15.2016 15.8953 14.3251 16.5188 13.5751 17.2875C12.7032 16.9782 11.7751 16.8 10.8001 16.8C6.17352 16.8 2.40009 20.5735 2.40009 25.2C2.40009 28.1391 3.92353 30.75 6.22509 32.25C2.55946 33.9844 8.80097e-05 37.6969 8.80097e-05 42V47.4C-0.00459949 47.7844 0.178214 48.1453 0.487588 48.375C0.487588 48.375 1.33603 48.975 2.96259 49.4625C4.58915 49.95 7.10165 50.4 10.8001 50.4C14.4985 50.4 17.011 49.95 18.6376 49.4625C18.8485 49.4016 19.0173 49.3407 19.2001 49.275V54.6C19.1954 54.9844 19.3782 55.3453 19.6876 55.575C19.6876 55.575 20.536 56.175 22.1626 56.6625C23.7891 57.15 26.3016 57.6 30.0001 57.6C33.6985 57.6 36.211 57.15 37.8376 56.6625C39.4641 56.175 40.3126 55.575 40.3126 55.575C40.622 55.3453 40.8048 54.9844 40.8001 54.6V49.275C40.9829 49.3407 41.1516 49.4016 41.3626 49.4625C42.9891 49.95 45.5016 50.4 49.2001 50.4C52.8985 50.4 55.411 49.95 57.0376 49.4625C58.6641 48.975 59.5126 48.375 59.5126 48.375C59.822 48.1453 60.0048 47.7844 60.0001 47.4V42C60.0001 37.6969 57.4407 33.9844 53.7751 32.25C56.0766 30.75 57.6001 28.1391 57.6001 25.2C57.6001 20.5735 53.8266 16.8 49.2001 16.8C48.1548 16.8 47.161 17.011 46.2376 17.3625C45.4829 16.5703 44.5923 15.9094 43.6126 15.4125C45.4032 14.1 46.5751 11.9813 46.5751 9.60002C46.5751 5.63909 43.336 2.40002 39.3751 2.40002C35.4141 2.40002 32.1751 5.63909 32.1751 9.60002C32.1751 11.9813 33.347 14.1 35.1376 15.4125C32.3813 16.7719 30.3657 19.3875 29.8876 22.5375C29.4095 19.3828 27.3985 16.7672 24.6376 15.4125C26.4282 14.1 27.6001 11.9813 27.6001 9.60002C27.6001 5.63909 24.361 2.40002 20.4001 2.40002ZM20.4001 4.80002C23.0673 4.80002 25.2001 6.93284 25.2001 9.60002C25.2001 12.2672 23.0673 14.4 20.4001 14.4C17.7329 14.4 15.6001 12.2672 15.6001 9.60002C15.6001 6.93284 17.7329 4.80002 20.4001 4.80002ZM39.3751 4.80002C42.0423 4.80002 44.1751 6.93284 44.1751 9.60002C44.1751 12.2672 42.0423 14.4 39.3751 14.4C36.7079 14.4 34.5751 12.2672 34.5751 9.60002C34.5751 6.93284 36.7079 4.80002 39.3751 4.80002ZM20.4001 16.8C24.4454 16.8 27.6001 19.9547 27.6001 24V24.375C24.1501 25.4203 21.6001 28.6172 21.6001 32.4C21.6001 35.3391 23.1235 37.95 25.4251 39.45C23.9204 40.1625 22.6313 41.2078 21.6001 42.4875V42C21.6001 37.6969 19.0407 33.9844 15.3751 32.25C17.6766 30.75 19.2001 28.1391 19.2001 25.2C19.2001 22.4625 17.8641 20.025 15.8251 18.4875C17.072 17.4235 18.6188 16.8 20.4001 16.8ZM39.3751 16.8C41.2079 16.8 42.8016 17.4422 44.0626 18.5625C42.0845 20.1 40.8001 22.5141 40.8001 25.2C40.8001 28.1391 42.3235 30.75 44.6251 32.25C40.9595 33.9844 38.4001 37.6969 38.4001 42V42.4875C37.3688 41.2078 36.0798 40.1625 34.5751 39.45C36.8766 37.95 38.4001 35.3391 38.4001 32.4C38.4001 28.5328 35.747 25.2657 32.1751 24.3V24C32.1751 19.9547 35.3298 16.8 39.3751 16.8ZM10.8001 19.2C11.7329 19.2 12.6001 19.425 13.3876 19.8C15.4032 20.7656 16.8001 22.8047 16.8001 25.2C16.8001 28.5282 14.1282 31.2 10.8001 31.2C7.47196 31.2 4.80009 28.5282 4.80009 25.2C4.80009 21.8719 7.47196 19.2 10.8001 19.2ZM49.2001 19.2C52.5282 19.2 55.2001 21.8719 55.2001 25.2C55.2001 28.5282 52.5282 31.2 49.2001 31.2C45.872 31.2 43.2001 28.5282 43.2001 25.2C43.2001 22.9828 44.386 21.0657 46.1626 20.025C46.172 20.0203 46.1907 20.0297 46.2001 20.025C46.3782 19.9875 46.5423 19.9125 46.6876 19.8C46.7298 19.7813 46.7579 19.7438 46.8001 19.725C46.8235 19.7157 46.8516 19.7016 46.8751 19.6875C47.5923 19.3828 48.3704 19.2 49.2001 19.2ZM30.0001 26.4C33.3282 26.4 36.0001 29.0719 36.0001 32.4C36.0001 35.7281 33.3282 38.4 30.0001 38.4C26.672 38.4 24.0001 35.7281 24.0001 32.4C24.0001 29.0719 26.672 26.4 30.0001 26.4ZM10.8001 33.6C15.4267 33.6 19.2001 37.3735 19.2001 42V46.6125C19.022 46.7203 18.9517 46.8422 17.9626 47.1375C16.5891 47.55 14.3017 48 10.8001 48C7.29852 48 5.01102 47.55 3.63759 47.1375C2.64853 46.8422 2.57821 46.7203 2.40009 46.6125V42C2.40009 37.3735 6.17352 33.6 10.8001 33.6ZM49.2001 33.6C53.8266 33.6 57.6001 37.3735 57.6001 42V46.6125C57.422 46.7203 57.3516 46.8422 56.3626 47.1375C54.9891 47.55 52.7016 48 49.2001 48C45.6985 48 43.411 47.55 42.0376 47.1375C41.0485 46.8422 40.9782 46.7203 40.8001 46.6125V42C40.8001 37.3735 44.5735 33.6 49.2001 33.6ZM30.0001 40.8C34.6266 40.8 38.4001 44.5735 38.4001 49.2V53.8125C38.222 53.9203 38.1516 54.0422 37.1626 54.3375C35.7891 54.75 33.5016 55.2 30.0001 55.2C26.4985 55.2 24.211 54.75 22.8376 54.3375C21.8485 54.0422 21.7782 53.9203 21.6001 53.8125V49.2C21.6001 44.5735 25.3735 40.8 30.0001 40.8Z" fill="white"/>
</g>
<defs>
<clipPath id="clip0_88_196">
<rect width="60" height="60" fill="white"/>
</clipPath>
</defs>
</svg>
