<svg width="60" height="60" viewBox="0 0 60 60" fill="none" xmlns="http://www.w3.org/2000/svg">
<path d="M47.9999 6V10H41.9999C41.6891 9.99986 41.3825 10.0722 41.1045 10.2112C40.8265 10.3502 40.5847 10.552 40.3984 10.8008L34.9999 18H29.9999C29.4695 18.0001 28.9609 18.2109 28.5859 18.5859L23.1718 24H17.9999C17.6051 24 17.2191 24.1169 16.8905 24.3359L11.3945 28H9.99992C9.7349 27.9963 9.47177 28.0452 9.22583 28.144C8.9799 28.2429 8.75606 28.3896 8.56732 28.5757C8.37858 28.7618 8.2287 28.9835 8.12641 29.228C8.02411 29.4725 7.97144 29.7349 7.97144 30C7.97144 30.2651 8.02411 30.5275 8.12641 30.772C8.2287 31.0165 8.37858 31.2382 8.56732 31.4243C8.75606 31.6104 8.9799 31.7571 9.22583 31.856C9.47177 31.9548 9.7349 32.0037 9.99992 32H11.9999C12.3948 32 12.7808 31.8831 13.1093 31.6641L18.6054 28H23.9999C24.5303 27.9999 25.039 27.7891 25.414 27.4141L30.828 22H35.9999C36.3107 22.0001 36.6173 21.9278 36.8953 21.7888C37.1733 21.6498 37.4151 21.448 37.6015 21.1992L42.9999 14H47.9999V18L53.9999 12L47.9999 6ZM45.9999 22C44.8959 22 43.9999 22.896 43.9999 24V52H51.9999V24C51.9999 22.896 51.1039 22 49.9999 22H45.9999ZM33.9999 28C32.8959 28 31.9999 28.896 31.9999 30V52H39.9999V30C39.9999 28.896 39.1039 28 37.9999 28H33.9999ZM21.9999 34C20.8959 34 19.9999 34.896 19.9999 36V52H27.9999V36C27.9999 34.896 27.1039 34 25.9999 34H21.9999ZM9.99992 40C8.89592 40 7.99992 40.896 7.99992 42V52H15.9999V42C15.9999 40.896 15.1039 40 13.9999 40H9.99992Z" fill="white"/>
</svg>
