<svg width="26" height="26" viewBox="0 0 26 26" fill="none" xmlns="http://www.w3.org/2000/svg">
<g clip-path="url(#clip0_269_434)">
<path d="M24.9295 16.1959L19.0168 10.5837C18.9106 10.4826 18.7696 10.426 18.6229 10.4258H7.38011C7.23344 10.426 7.09246 10.4826 6.98625 10.5837C6.94602 10.6219 1.02903 16.2407 1.06755 16.2029C1.00688 16.264 0.960133 16.3374 0.930509 16.4182C0.900886 16.499 0.88909 16.5853 0.895931 16.6711C0.902773 16.7569 0.928089 16.8402 0.970143 16.9152C1.0122 16.9903 1.07 17.0554 1.13957 17.1061L12.6737 25.2054C12.7702 25.2718 12.8845 25.3072 13.0015 25.3072C13.1186 25.3072 13.2328 25.2718 13.3293 25.2054L24.8635 17.1061C24.9345 17.0555 24.9935 16.99 25.0363 16.914C25.079 16.838 25.1045 16.7535 25.1108 16.6665C25.1171 16.5796 25.1041 16.4923 25.0728 16.411C25.0415 16.3296 24.9925 16.2562 24.9295 16.1959ZM6.91013 12.2597L8.56535 16.038H2.92961L6.91013 12.2597ZM9.82779 16.038L7.88253 11.5977H18.1205L16.1752 16.038H9.82779ZM15.6619 17.2098L13.0015 23.2825L10.3412 17.2098H15.6619ZM9.07874 17.2098L11.6392 23.0545L3.31591 17.2098H9.07874ZM16.9243 17.2098H22.6871L14.3638 23.0545L16.9243 17.2098ZM17.4377 16.038L19.0929 12.2597L23.0734 16.038H17.4377Z" fill="#979797"/>
<path d="M17.0053 9.18842H8.99783C8.7046 9.18842 8.42203 9.07849 8.20589 8.88033C7.98976 8.68217 7.85576 8.41019 7.83036 8.11806L7.34644 2.55306C7.33222 2.38946 7.3699 2.22555 7.45414 2.08459C7.53838 1.94363 7.6649 1.8328 7.81571 1.76785C7.96653 1.70289 8.13398 1.68711 8.29428 1.72274C8.45458 1.75837 8.59957 1.84361 8.70867 1.96634L9.64321 3.0177C9.71937 3.10338 9.81346 3.17126 9.91881 3.2165C10.0241 3.26175 10.1382 3.28325 10.2527 3.27949C10.3673 3.27573 10.4797 3.2468 10.5818 3.19475C10.684 3.1427 10.7734 3.0688 10.8438 2.9783L12.3849 0.996922C12.4579 0.903012 12.5514 0.827024 12.6583 0.774754C12.7652 0.722484 12.8826 0.695312 13.0016 0.695312C13.1205 0.695312 13.2379 0.722484 13.3448 0.774754C13.4517 0.827024 13.5452 0.903012 13.6182 0.996922L15.1593 2.9783C15.2297 3.0688 15.3191 3.1427 15.4213 3.19475C15.5234 3.2468 15.6358 3.27573 15.7504 3.27949C15.865 3.28325 15.979 3.26175 16.0843 3.2165C16.1896 3.17126 16.2837 3.10338 16.3599 3.0177L17.2944 1.96634C17.4035 1.84361 17.5485 1.75837 17.7088 1.72274C17.8691 1.68711 18.0366 1.70289 18.1874 1.76785C18.3382 1.83281 18.4647 1.94364 18.549 2.08459C18.6332 2.22555 18.6709 2.38947 18.6567 2.55306L18.1728 8.11806C18.1474 8.41019 18.0134 8.68217 17.7972 8.88033C17.5811 9.07849 17.2985 9.18842 17.0053 9.18842Z" fill="#979797"/>
</g>
<defs>
<clipPath id="clip0_269_434">
<rect width="25" height="25" fill="white" transform="translate(0.50293 0.5)"/>
</clipPath>
</defs>
</svg>
