<svg width="60" height="60" viewBox="0 0 60 60" fill="none" xmlns="http://www.w3.org/2000/svg">
<path d="M28.3173 2.4C27.736 2.39532 27.2345 2.8125 27.1314 3.38438L26.4751 6.975C25.9126 7.15782 25.3689 7.37813 24.8345 7.64063L21.886 5.5125C21.4126 5.17032 20.7564 5.21719 20.3439 5.63438L17.7798 8.15625C17.3673 8.56875 17.3064 9.21563 17.6392 9.69375L19.711 12.6938C19.4392 13.2234 19.2095 13.7672 19.0267 14.325L15.4314 14.9063C14.8548 14.9953 14.4282 15.4922 14.4235 16.0828L14.4001 19.6828C14.3954 20.2641 14.8126 20.7656 15.3845 20.8688L18.9892 21.525C19.1673 22.0828 19.3923 22.6219 19.6548 23.1516L17.5126 26.1141C17.1704 26.5875 17.2173 27.2438 17.6298 27.6609L20.161 30.2203C20.5689 30.6328 21.2157 30.6938 21.6939 30.3609L24.7314 28.2703C25.2564 28.5375 25.7954 28.7578 26.3485 28.9406L26.9673 32.5781C27.0657 33.1547 27.5579 33.5766 28.1439 33.5813L31.7392 33.6C32.3298 33.6047 32.8314 33.1781 32.9298 32.6016L33.5439 28.9688C34.0923 28.7906 34.6267 28.575 35.147 28.3125L38.161 30.4547C38.6392 30.7922 39.286 30.7359 39.6985 30.3281L42.2626 27.8016C42.6798 27.3891 42.736 26.7328 42.3939 26.25L40.2564 23.25C40.5235 22.7297 40.7485 22.2 40.9314 21.6563L44.5829 21.0375C45.1548 20.9391 45.5767 20.4422 45.5814 19.8563L45.6001 16.2609C45.6048 15.675 45.1829 15.1734 44.6017 15.075L40.9829 14.4609C40.8048 13.9078 40.5845 13.3688 40.3267 12.8391L42.4548 9.83438C42.797 9.36094 42.7454 8.71406 42.3329 8.29688L39.8017 5.7375C39.3892 5.325 38.7329 5.26407 38.2548 5.60625L35.2829 7.71563C34.7579 7.44844 34.2235 7.22344 33.6751 7.04063L33.0939 3.43125C33.0001 2.85 32.5032 2.42344 31.9126 2.41875L28.3173 2.4ZM29.311 4.80469L30.886 4.81407L31.4064 8.05782C31.4814 8.53125 31.8329 8.91094 32.2923 9.02813C33.1735 9.25313 34.022 9.61407 34.8189 10.0969C35.2267 10.35 35.747 10.3313 36.136 10.0547L38.8126 8.15625L39.9189 9.27188L37.9923 11.9719C37.7204 12.3609 37.697 12.8719 37.9407 13.2797C38.4142 14.0813 38.761 14.9344 38.9673 15.8109C39.0798 16.2797 39.4595 16.6359 39.9376 16.7203L43.1954 17.2688L43.186 18.8391L39.8954 19.3922C39.4267 19.4719 39.047 19.8234 38.9298 20.2828C38.7095 21.1547 38.3579 21.9984 37.8751 22.7859C37.6267 23.1984 37.6454 23.7188 37.9267 24.1078L39.8439 26.8125L38.7329 27.9141L36.0095 25.9828C35.6204 25.7063 35.1095 25.6875 34.7017 25.9313C33.9048 26.4047 33.061 26.7422 32.1845 26.9578C31.7157 27.0703 31.3642 27.45 31.2845 27.9234L30.7314 31.1953L29.1657 31.1813L28.6126 27.9C28.5329 27.4313 28.1814 27.0516 27.7126 26.9391C26.8454 26.7234 25.9923 26.3672 25.1954 25.8891C24.7923 25.6453 24.2814 25.6594 23.8923 25.9313L21.1595 27.8156L20.0532 26.6953L21.9798 24.0328C22.261 23.6438 22.2845 23.1234 22.036 22.7109C21.5626 21.9094 21.2157 21.0563 21.0001 20.175C20.8876 19.7156 20.5173 19.3641 20.0485 19.275L16.8048 18.6891L16.8189 17.1141L20.0485 16.5938C20.522 16.5188 20.9064 16.1672 21.0235 15.7031C21.2485 14.8172 21.6001 13.9641 22.0876 13.1672C22.336 12.7641 22.322 12.2484 22.0501 11.8594L20.1892 9.15938L21.3048 8.05313L23.9579 9.96563C24.3423 10.2469 24.8579 10.2703 25.2704 10.0313C26.0767 9.54844 26.9345 9.20625 27.8204 8.99063C28.2845 8.88281 28.636 8.50781 28.7204 8.04375L29.311 4.80469ZM29.986 12.0422C28.4439 12.0328 26.897 12.6094 25.7204 13.7766C23.3673 16.1016 23.3485 19.9313 25.6735 22.2891C27.9985 24.6422 31.8329 24.6609 34.186 22.3359C36.5392 20.0109 36.5579 16.1766 34.2329 13.8234C33.0704 12.6469 31.5282 12.0516 29.986 12.0422ZM29.9767 14.4281C30.9001 14.4328 31.8189 14.7938 32.5267 15.5109C33.9423 16.9406 33.9282 19.2141 32.4985 20.625C31.0689 22.0406 28.7954 22.0313 27.3798 20.6016C25.9642 19.1672 25.9782 16.8938 27.4079 15.4828C28.1251 14.775 29.0485 14.4234 29.9767 14.4281ZM17.3064 33.6C14.1751 33.6 12.7314 34.35 11.1751 34.95C11.1751 34.9547 11.1751 34.9547 11.1751 34.9547C8.18917 36.1172 3.07979 38.5266 3.07979 38.5266C2.47979 38.8078 2.22198 39.525 2.50323 40.125C2.78917 40.725 3.50635 40.9828 4.10636 40.7016C4.10636 40.7016 9.24854 38.2781 12.0423 37.1906C13.7673 36.5203 14.5173 36 17.3064 36C23.461 36 23.2126 38.6719 25.8095 40.2C25.847 40.2234 25.8892 40.2469 25.9314 40.2609C29.1517 41.7047 32.611 42 35.4001 42C36.6329 42 37.411 42.2859 37.8329 42.6047C38.2501 42.9281 38.4001 43.2609 38.4001 43.8C38.4001 44.4328 38.2407 44.7328 37.8235 45.0375C37.411 45.3375 36.6142 45.6 35.4001 45.6H29.1001C26.4564 45.6 21.9048 44.4375 21.9048 44.4375C21.4923 44.325 21.047 44.4469 20.7423 44.7516C20.4376 45.0563 20.3204 45.5016 20.4329 45.9141C20.5501 46.3313 20.8782 46.6547 21.2954 46.7625C21.2954 46.7625 25.8095 48 29.1001 48H35.4001C36.6235 48 37.6876 47.7984 38.5782 47.3578C38.6954 47.325 38.8079 47.2734 38.9064 47.2031L50.2876 39.7359C51.9985 38.7469 53.1657 38.4703 53.8501 38.4797C54.5345 38.4938 54.7689 38.7 54.9751 38.9625C55.2798 39.3563 55.2985 39.5063 55.1017 39.9609C54.9001 40.4203 54.3142 41.1281 53.2595 41.8594C53.2595 41.8594 53.2595 41.8594 53.2548 41.8594C51.9517 42.7688 37.3782 52.2656 35.6954 53.2219C34.4251 53.9438 33.4173 54.7031 32.2689 55.0266C31.1204 55.3453 29.7657 55.3453 27.5251 54.2766C26.0298 53.5594 19.6642 50.2969 17.6017 49.2516C16.4532 48.6703 15.4735 48.3422 14.4751 48.3984C13.472 48.4547 12.6235 48.8813 11.747 49.4344C11.7423 49.4344 11.7376 49.4391 11.7376 49.4438L8.76573 51.3422C8.39073 51.5672 8.17042 51.9797 8.18448 52.4156C8.19854 52.8516 8.45167 53.2453 8.84073 53.4422C9.23448 53.6391 9.69854 53.6109 10.0595 53.3625L13.0173 51.4688C13.7814 50.9906 14.2126 50.8172 14.6064 50.7938C15.0001 50.7703 15.5392 50.8969 16.5189 51.3938C18.5626 52.4297 24.8298 55.6453 26.4939 56.4375C29.1048 57.6891 31.2189 57.8063 32.911 57.3375C34.6032 56.8641 35.8079 55.9172 36.8814 55.3078C39.197 53.9906 52.9548 44.9906 54.6282 43.8281C55.8985 42.9422 56.8314 42.0188 57.3048 40.9125C57.7782 39.8063 57.6235 38.4562 56.8689 37.4906C56.8689 37.4906 56.8689 37.4906 56.8689 37.4859C56.2735 36.7266 55.2189 36.1078 53.8923 36.0797C53.1376 36.0656 52.2985 36.2391 51.3657 36.5813C51.1923 36.3516 50.9298 36.0516 50.5689 35.7891C49.8704 35.2688 48.7595 34.8 47.2501 34.8C46.4767 34.8 45.8439 34.9781 45.3376 35.1891C44.6157 34.5 43.336 33.6234 41.4751 33.6234C39.9657 33.6234 38.5501 34.1297 37.5657 34.7109C37.3829 34.8188 36.9423 35.0953 36.1923 35.5641C35.4423 36.0328 34.4626 36.6375 33.497 37.2422C31.9548 38.2031 30.9985 38.8031 30.4454 39.15C29.2689 38.9156 28.0923 38.5828 26.9814 38.0953C26.0345 37.4859 24.211 33.6 17.3064 33.6ZM41.4751 36.0234C42.2345 36.0234 42.7782 36.2156 43.1626 36.4406L37.6126 39.8813C36.9517 39.6938 36.211 39.6 35.4001 39.6C35.0532 39.6 34.6735 39.5766 34.3126 39.5625C34.5376 39.4219 34.5376 39.4219 34.7673 39.2813C35.7329 38.6766 36.7079 38.0672 37.4626 37.5984C38.2126 37.1344 38.8267 36.7547 38.7845 36.7781C39.3517 36.4406 40.5845 36.0234 41.4751 36.0234ZM47.2501 37.2C48.2251 37.2 48.7501 37.4484 49.0689 37.6688C49.0501 37.6781 49.036 37.6875 49.0173 37.7016L40.7251 43.1391C40.6126 42.4688 40.336 41.8266 39.8954 41.2922L45.6939 37.6969L45.6985 37.6875C45.7454 37.6641 46.7485 37.2 47.2501 37.2Z" fill="white"/>
</svg>
