<svg width="25" height="24" viewBox="0 0 25 24" fill="none" xmlns="http://www.w3.org/2000/svg">
<path d="M23.696 17.5448C23.8135 17.4303 23.8966 17.2851 23.936 17.1258C23.9753 16.9664 23.9693 16.7993 23.9186 16.6432C23.8678 16.4871 23.7745 16.3484 23.649 16.2426C23.5235 16.1368 23.371 16.0682 23.2086 16.0446L20.5876 15.6638C20.4465 15.6433 20.3125 15.5888 20.1971 15.505C20.0817 15.4211 19.9885 15.3105 19.9254 15.1826L18.7532 12.8077C18.6806 12.6605 18.5683 12.5366 18.4289 12.4499C18.2895 12.3633 18.1287 12.3174 17.9646 12.3174C17.8004 12.3174 17.6396 12.3633 17.5002 12.4499C17.3609 12.5366 17.2485 12.6605 17.1759 12.8077L16.0037 15.1826C15.9406 15.3105 15.8474 15.4211 15.732 15.505C15.6167 15.5888 15.4826 15.6433 15.3415 15.6638L12.7206 16.0446C12.5581 16.0682 12.4056 16.1368 12.2801 16.2426C12.1547 16.3484 12.0613 16.4871 12.0106 16.6432C11.9599 16.7993 11.9538 16.9665 11.9932 17.1258C12.0325 17.2851 12.1156 17.4303 12.2331 17.5448L14.1297 19.3935C14.2318 19.493 14.3082 19.6159 14.3522 19.7515C14.3963 19.8871 14.4067 20.0314 14.3826 20.172L13.9349 22.7823C13.9072 22.9441 13.9252 23.1104 13.9871 23.2624C14.0489 23.4144 14.152 23.5461 14.2848 23.6426C14.4176 23.739 14.5747 23.7964 14.7384 23.8082C14.9021 23.8201 15.0658 23.7859 15.211 23.7095L17.5553 22.477C17.6815 22.4107 17.822 22.376 17.9646 22.376C18.1072 22.376 18.2476 22.4107 18.3738 22.477L20.7181 23.7095C20.8634 23.7859 21.0271 23.8201 21.1908 23.8082C21.3545 23.7964 21.5116 23.739 21.6443 23.6426C21.7771 23.5461 21.8802 23.4144 21.9421 23.2624C22.0039 23.1104 22.0219 22.9441 21.9942 22.7823L21.5465 20.172C21.5224 20.0314 21.5328 19.8871 21.5769 19.7515C21.621 19.6159 21.6973 19.493 21.7995 19.3935L23.696 17.5448ZM20.8751 17.6002C20.8537 17.7478 20.7745 17.8808 20.655 17.9701C20.5354 18.0593 20.3854 18.0974 20.2377 18.076C19.7054 17.9988 19.1999 17.7933 18.7647 17.4772C18.3295 17.1611 17.9777 16.7438 17.7396 16.2615C17.7069 16.1953 17.6876 16.1232 17.6827 16.0495C17.6778 15.9759 17.6875 15.9019 17.7112 15.832C17.7349 15.762 17.7722 15.6974 17.8209 15.6419C17.8695 15.5863 17.9287 15.5409 17.9949 15.5082C18.0611 15.4755 18.1331 15.4561 18.2068 15.4513C18.2805 15.4464 18.3545 15.4561 18.4244 15.4798C18.4944 15.5035 18.559 15.5407 18.6145 15.5894C18.6701 15.6381 18.7155 15.6972 18.7482 15.7634C18.9056 16.0822 19.1381 16.3579 19.4257 16.5669C19.7133 16.7758 20.0474 16.9117 20.3993 16.9628C20.4724 16.9734 20.5427 16.9982 20.6061 17.036C20.6696 17.0738 20.725 17.1237 20.7692 17.1829C20.8134 17.2421 20.8455 17.3094 20.8637 17.381C20.8819 17.4526 20.8858 17.5271 20.8751 17.6002V17.6002Z" fill="#979797"/>
<path d="M12.2522 22.5942H11.9626V19.7817C11.9626 19.6326 11.9034 19.4895 11.7979 19.384C11.6924 19.2785 11.5493 19.2192 11.4001 19.2192C11.251 19.2192 11.1079 19.2785 11.0024 19.384C10.8969 19.4895 10.8376 19.6326 10.8376 19.7817V22.5942H5.58765V19.7817C5.58765 19.6326 5.52838 19.4895 5.42289 19.384C5.3174 19.2785 5.17433 19.2192 5.02515 19.2192C4.87596 19.2192 4.73289 19.2785 4.6274 19.384C4.52191 19.4895 4.46265 19.6326 4.46265 19.7817V22.5942H2.77515C2.62596 22.5942 2.48289 22.535 2.3774 22.4295C2.27191 22.324 2.21265 22.1809 2.21265 22.0317V15.8294C2.21265 15.4431 2.32601 15.0653 2.5387 14.7427C2.75139 14.4202 3.05404 14.1672 3.40914 14.0151L5.75372 13.0105C5.94036 13.5121 6.27595 13.9447 6.71548 14.2501C7.155 14.5555 7.67742 14.7192 8.21265 14.7192C8.74787 14.7192 9.2703 14.5555 9.70982 14.2501C10.1493 13.9447 10.4849 13.5121 10.6716 13.0105L13.0161 14.015C13.2775 14.1269 13.5117 14.294 13.7024 14.5049C13.7648 14.575 13.8437 14.6284 13.9319 14.6602C14.0202 14.6921 14.115 14.7014 14.2077 14.6873V14.6873C14.3069 14.672 14.4001 14.6305 14.4779 14.5671C14.5556 14.5036 14.6149 14.4205 14.6497 14.3264C14.6844 14.2323 14.6934 14.1306 14.6756 14.0319C14.6578 13.9332 14.6139 13.841 14.5484 13.765C14.2474 13.4268 13.8755 13.159 13.4592 12.9808L10.8376 11.8577V11.0132C11.1935 10.6657 11.4763 10.2506 11.6695 9.79228C11.8627 9.33395 11.9624 8.84164 11.9626 8.34425V6.84425C11.9626 6.83802 11.9618 6.83162 11.9618 6.82539C12.2016 6.79927 12.433 6.72192 12.6404 6.59859C12.8477 6.47525 13.0261 6.3088 13.1636 6.1105C13.301 5.91221 13.3942 5.6867 13.4369 5.44925C13.4796 5.2118 13.4708 4.96795 13.411 4.73421C13.3132 4.36759 13.0958 4.0441 12.7934 3.81497C12.4909 3.58584 12.1207 3.46417 11.7412 3.46925H11.7111L10.9618 0.865853C10.9275 0.746595 10.87 0.635326 10.7924 0.538506C10.7148 0.441685 10.6187 0.361241 10.5098 0.301842C10.4008 0.242442 10.2812 0.205272 10.1578 0.192487C10.0344 0.179702 9.90963 0.191558 9.79083 0.227367L8.21265 0.702158L6.63446 0.227367C6.51566 0.191561 6.39094 0.179707 6.26752 0.192494C6.14411 0.20528 6.02446 0.242451 5.91553 0.30185C5.80659 0.361249 5.71054 0.441692 5.63295 0.538511C5.55536 0.63533 5.49777 0.746597 5.46352 0.865853L4.71417 3.46925H4.68405C4.30464 3.46417 3.93438 3.58584 3.63193 3.81497C3.32948 4.0441 3.11212 4.36759 3.01429 4.73421C2.95454 4.96795 2.94572 5.2118 2.98841 5.44925C3.0311 5.6867 3.12431 5.91221 3.26173 6.1105C3.39915 6.3088 3.57758 6.47525 3.78493 6.59859C3.99227 6.72192 4.2237 6.79927 4.46354 6.82539C4.46352 6.83162 4.46265 6.83802 4.46265 6.84425V8.34425C4.46293 8.84164 4.56259 9.33395 4.75578 9.79228C4.94897 10.2506 5.2318 10.6657 5.58765 11.0132V11.8577L2.96628 12.9808C2.40873 13.2196 1.93353 13.6169 1.59959 14.1233C1.26565 14.6296 1.08765 15.2229 1.08765 15.8294V22.0317C1.08765 22.4793 1.26544 22.9085 1.5819 23.225C1.89837 23.5415 2.32759 23.7192 2.77515 23.7192H12.2291C12.3088 23.7193 12.3877 23.7027 12.4607 23.6707C12.5338 23.6387 12.5994 23.592 12.6534 23.5334C12.7075 23.4747 12.7488 23.4056 12.7748 23.3302C12.8008 23.2548 12.8109 23.1749 12.8045 23.0954L12.8036 23.084C12.7896 22.9482 12.7252 22.8226 12.6231 22.7319C12.521 22.6413 12.3887 22.5922 12.2522 22.5942V22.5942ZM9.71265 12.1561C9.71109 12.1684 9.70679 12.1799 9.70605 12.1924C9.68202 12.5721 9.51422 12.9285 9.23679 13.1889C8.95937 13.4493 8.59315 13.5943 8.21265 13.5943C7.83214 13.5943 7.46593 13.4493 7.1885 13.1889C6.91108 12.9285 6.74328 12.5721 6.71924 12.1924C6.71851 12.1799 6.7142 12.1684 6.71265 12.1561V11.779C7.1854 11.9869 7.6962 12.0942 8.21265 12.0942C8.72909 12.0942 9.2399 11.9869 9.71265 11.779V12.1561ZM10.8376 8.34425C10.8376 9.04044 10.5611 9.70812 10.0688 10.2004C9.57652 10.6927 8.90884 10.9692 8.21265 10.9692C7.51645 10.9692 6.84877 10.6927 6.35649 10.2004C5.86421 9.70812 5.58765 9.04044 5.58765 8.34425V6.84425H10.8376V8.34425ZM6.49219 1.35932L7.94366 1.79603C8.11913 1.8486 8.30616 1.8486 8.48163 1.79603L9.93311 1.35932L10.5405 3.46925H5.88484L6.49219 1.35932ZM4.65015 5.71925C4.50096 5.71925 4.35789 5.65999 4.2524 5.5545C4.14691 5.44901 4.08765 5.30593 4.08765 5.15675C4.08765 5.00756 4.14691 4.86449 4.2524 4.759C4.35789 4.65351 4.50096 4.59425 4.65015 4.59425H11.7751C11.9243 4.59425 12.0674 4.65351 12.1729 4.759C12.2784 4.86449 12.3376 5.00756 12.3376 5.15675C12.3376 5.30593 12.2784 5.44901 12.1729 5.5545C12.0674 5.65999 11.9243 5.71925 11.7751 5.71925H4.65015Z" fill="#979797"/>
</svg>
