<svg width="60" height="60" viewBox="0 0 60 60" fill="none" xmlns="http://www.w3.org/2000/svg">
<g clip-path="url(#clip0_88_184)">
<path d="M41.0625 4.94998C39.839 5.02029 38.6343 5.32029 37.5 5.88748L30.9 9.11248H12.15L1.49997 6.52498C1.34059 6.4781 1.17653 6.46873 1.01247 6.48748C0.431217 6.55779 -0.00940849 7.03592 -0.0375335 7.62185C-0.0656585 8.2031 0.328092 8.72342 0.899967 8.84998L11.7 11.475L11.85 11.5125H25.9875L15.7875 16.5C15.7453 16.5187 15.7172 16.5562 15.675 16.575C14.0906 17.2734 13.6734 19.439 14.85 20.7L14.8125 20.7375C14.8312 20.7562 14.8687 20.7562 14.8875 20.775C18.4593 24.689 24.1172 25.9875 29.1 24.0375H29.1375L36.1875 21.3L50.7375 35.8875C51.839 36.989 51.839 38.7234 50.7375 39.825C49.6359 40.9265 47.9015 40.9265 46.8 39.825C46.3218 39.4406 45.6328 39.4781 45.1968 39.9094C44.7656 40.3453 44.7281 41.0344 45.1125 41.5125C46.214 42.614 46.214 44.3859 45.1125 45.4875C44.0109 46.589 42.2765 46.589 41.175 45.4875L40.3125 44.625C39.8343 44.2406 39.1453 44.2781 38.7093 44.7094C38.2781 45.1453 38.2406 45.8344 38.625 46.3125C39.7265 47.414 39.7265 49.1859 38.625 50.2875C37.5234 51.389 35.789 51.389 34.6875 50.2875L33.8625 49.425C33.3984 48.9469 32.6343 48.9422 32.1562 49.4062C31.6781 49.8703 31.6734 50.6344 32.1375 51.1125C33.239 52.214 33.239 53.9859 32.1375 55.0875C31.0359 56.189 29.3015 56.189 28.2 55.0875L26.7 53.5875L27.6 52.6875C29.3578 50.9297 29.3578 48.0703 27.6 46.3125C26.7234 45.4359 25.5656 45 24.4125 45C24.3984 45 24.389 45 24.375 45C24.3937 43.8187 23.9578 42.6328 23.0625 41.7375C22.1859 40.8609 21.0281 40.425 19.875 40.425C19.814 40.425 19.7484 40.4203 19.6875 40.425C19.725 39.2203 19.2937 38.0062 18.375 37.0875C17.4984 36.2109 16.3406 35.7375 15.1875 35.7375C15.1265 35.7375 15.0609 35.7328 15 35.7375C15.0375 34.5328 14.6062 33.3187 13.6875 32.4C12.8109 31.5234 11.6531 31.0875 10.5 31.0875C9.34684 31.0875 8.18903 31.5234 7.31247 32.4L6.22497 33.4875L1.38747 32.6625C1.31247 32.6437 1.23747 32.6297 1.16247 32.625C0.501529 32.5828 -0.070346 33.089 -0.112533 33.75C-0.154721 34.4109 0.351529 34.9828 1.01247 35.025L4.94997 35.7375C4.59372 37.214 4.96403 38.8265 6.11247 39.975C7.04059 40.9031 8.2734 41.339 9.48747 41.2875C9.4359 42.5015 9.87184 43.7344 10.8 44.6625C11.7281 45.5906 12.9609 46.0265 14.175 45.975C14.1375 47.1797 14.5687 48.3937 15.4875 49.3125C16.3828 50.2078 17.5687 50.6437 18.75 50.625C18.7218 51.8109 19.1437 53.0062 20.025 53.8875L20.0625 53.925C21.314 55.1484 23.114 55.4719 24.675 54.9375L26.5125 56.775C28.5281 58.7906 31.8468 58.7906 33.8625 56.775C34.8422 55.7953 35.2968 54.5015 35.325 53.2125C37.0593 53.6719 38.9625 53.325 40.3125 51.975C41.2922 50.9953 41.7843 49.7015 41.8125 48.4125C43.5422 48.8672 45.45 48.525 46.8 47.175C47.9531 46.0219 48.389 44.4515 48.225 42.9375C49.739 43.1062 51.3093 42.6656 52.4625 41.5125C53.7515 40.2234 54.2109 38.414 53.85 36.75L54.5625 36.0375L58.9875 35.4C59.6484 35.2969 60.1031 34.6734 60 34.0125C59.8968 33.3515 59.2734 32.8969 58.6125 33L53.8125 33.75L53.4375 33.7875L52.725 34.5C52.6406 34.4015 52.5562 34.2937 52.4625 34.2L37.6875 19.425C37.6312 19.3687 37.5656 19.3172 37.5 19.275C37.4859 19.2609 37.4765 19.2515 37.4625 19.2375C37.1484 18.7734 36.5578 18.5906 36.0375 18.7875L28.2375 21.7875C24.1359 23.4094 19.5187 22.3547 16.6125 19.125L16.575 19.0875C16.4203 18.9328 16.4109 18.825 16.6125 18.75H16.6875L16.725 18.7125L31.5375 11.475C31.7906 11.4375 32.0297 11.3203 32.2125 11.1375L38.55 8.02498H38.5875C40.8 6.91873 43.3828 7.14373 45.4125 8.51248L45.8625 9.03748L45.975 9.18748L46.125 9.26248C48.3047 10.7625 50.9297 11.1609 53.4 10.5V10.5375L53.475 10.5L59.0625 9.33748C59.714 9.19217 60.1265 8.54529 59.9812 7.89373C59.8359 7.24217 59.189 6.82967 58.5375 6.97498L52.9125 8.17498L52.875 8.21248H52.8375C51.0468 8.70935 49.2 8.38123 47.5875 7.31248L47.1375 6.78748L47.025 6.67498L46.875 6.56248C45.4968 5.59685 43.9218 5.07185 42.3 4.94998C41.8922 4.92185 41.4703 4.92654 41.0625 4.94998ZM10.5 33.4125C11.025 33.4125 11.5593 33.6469 12 34.0875C12.8812 34.9687 12.8812 36.2062 12 37.0875L11.0625 37.9875L10.95 38.1L10.8 38.2875C9.91872 39.1687 8.68122 39.1687 7.79997 38.2875C7.07809 37.5656 6.97028 36.6187 7.42497 35.8125C7.6359 35.6625 7.79059 35.4562 7.87497 35.2125L8.84997 34.275L8.99997 34.0875C9.44059 33.6469 9.97497 33.4125 10.5 33.4125ZM15.1875 38.1C15.7125 38.1 16.2468 38.3344 16.6875 38.775C17.5687 39.6562 17.5687 40.8562 16.6875 41.7375L15.4875 42.9375C14.6062 43.8187 13.3687 43.8187 12.4875 42.9375C11.6062 42.0562 11.6062 40.8562 12.4875 39.975L13.6875 38.775C14.1281 38.3344 14.6625 38.1 15.1875 38.1ZM19.875 42.7875C20.4 42.7875 20.8968 43.0219 21.3375 43.4625C22.064 44.189 22.1859 45.1359 21.7125 45.9375C21.5484 46.0594 21.375 46.1625 21.225 46.3125L20.025 47.5125V47.55H19.9875C19.8562 47.6953 19.7578 47.8453 19.65 48C18.8484 48.4734 17.9015 48.3515 17.175 47.625C16.2937 46.7437 16.2937 45.5437 17.175 44.6625L18.075 43.725L18.3 43.5375L18.375 43.4625C18.8156 43.0219 19.35 42.7875 19.875 42.7875ZM24.4125 47.3625C24.9375 47.3625 25.4718 47.5594 25.9125 48C26.7937 48.8812 26.7937 50.1187 25.9125 51L24.7125 52.2C24.6093 52.3031 24.525 52.4203 24.4125 52.5C24.4031 52.5047 24.3843 52.4953 24.375 52.5C23.5359 53.0812 22.4859 52.9734 21.7125 52.2C21.1453 51.6328 21.014 50.4984 21.4125 49.65C21.5625 49.5328 21.7265 49.4484 21.8625 49.3125L23.0625 48.1125C23.2218 47.9531 23.3437 47.7656 23.475 47.5875C23.775 47.4375 24.0984 47.3625 24.4125 47.3625Z" fill="white"/>
</g>
<defs>
<clipPath id="clip0_88_184">
<rect width="60" height="60" fill="white"/>
</clipPath>
</defs>
</svg>
